<?xml version="1.0" encoding="utf-8"?>
<!-- Generator: Adobe Illustrator 16.0.0, SVG Export Plug-In . SVG Version: 6.00 Build 0)  -->
<!DOCTYPE svg PUBLIC "-//W3C//DTD SVG 1.1//EN" "http://www.w3.org/Graphics/SVG/1.1/DTD/svg11.dtd">
<svg version="1.1" id="Layer_1" xmlns="http://www.w3.org/2000/svg" xmlns:xlink="http://www.w3.org/1999/xlink" x="0px" y="0px"
   width="612px" height="792px" viewBox="50 270 512 250" enable-background="new 0 0 612 792" xml:space="preserve">
<g>
  <path fill-rule="evenodd" clip-rule="evenodd" d="M239.906,386.07c2.946-6.997,5.893-13.994,8.829-20.967
    c-8.491-5.145-12.267-13.979-10.189-23.514c1.825-8.374,4.442-16.345,10.309-22.943c3.567-4.013,6.01-4.175,8.864,0.206
    c3.946,6.058,7.759,12.206,11.494,18.396c2.576,4.27,5.617,4.101,9.705,2.069c5.434-2.7,11.069-5.108,16.826-7.014
    c6.613-2.189,19.48,3.487,22.044,9.887c7.33-10.212,17.481-6.542,27.129-5.88c-3.949,1.736-7.898,3.472-11.847,5.208
    c0.185,0.465,0.37,0.93,0.556,1.395c1.718-0.678,3.627-1.073,5.117-2.086c4.459-3.027,9.144-3.208,13.68-0.845
    c2.802,1.46,4.391,0.616,5.947-1.425c3.529-4.625,7.092-9.229,10.471-13.965c4.519-6.334,7.594-6,11.871,0.487
    c6.783,10.286,4.313,20.344-1.595,29.188c-4.49,6.725-3.16,12.603-1.645,19.172c1.158,5.018,2.14,10.076,3.313,15.66
    c-3.408-3.729-6.253-6.842-9.098-9.954c-0.398,0.292-0.797,0.584-1.195,0.876c0.391,0.71,0.759,1.435,1.182,2.125
    c0.518,0.848,0.902,1.918,1.655,2.458c6.511,4.664,6.487,11.322,5.8,18.255c-0.637,6.416-1.532,12.84-1.565,19.264
    c-0.014,2.531,2,5.074,2.884,7.131c0.497-8.891,1.009-18.043,1.551-27.742c2.613,0.565,4.579,0.782,6.376,1.454
    c1.153,0.432,4.127,0.8,1.168,3.113c-0.059,0.046,0.964,1.542,1.538,2.32c3.152,4.274,6.323,8.536,8.916,13.612
    c-2.703-1.693-5.407-3.387-9.038-5.661c3.604,4.7,7.323,8.129,9.212,12.372c2.328,5.23,3.14,11.137,4.581,16.758
    c0.12,0.468-0.056,1.016,0.076,1.478c1.345,4.729,3.002,9.393,3.989,14.194c0.579,2.812,0.105,5.84,0.105,9.404
    c-2.003-0.543-3.097-0.839-4.439-1.202c1.411,5.652,2.736,10.961,4.276,17.132c-3.639-1.611-5.766-2.553-7.893-3.494
    c-0.265,0.312-0.529,0.623-0.794,0.934c0.724,1.52,1.447,3.038,2.612,5.482c-4.16-3.399-8.707-4.453-10.411-9.837
    c-0.8-2.524-4.868-4.014-7.781-5.494c2.25,9.186,10.653,11.959,16.294,18.066c-1.965-0.585-3.929-1.17-6.723-2.002
    c1.116,2.32,1.862,3.869,2.687,5.584c-3.203-2.046-6.29-4.018-9.378-5.988c-0.482,0.677-0.965,1.354-1.447,2.03
    c2.387,1.869,4.773,3.739,7.391,5.789c-2.332,1.702-7.497-1.714-7.049,3.432c-2.234,0.23-4.005,0.413-6.757,0.697
    c-0.359-0.304-1.748-1.476-3.137-2.647c-0.281,0.254-0.563,0.507-0.844,0.761c1.429,2.191,2.857,4.383,5.135,7.878
    c-3.433-0.729-5.354-1.139-7.884-1.676c0.878,1.84,1.484,3.11,1.866,3.909c-3.189-0.167-6.418-0.337-10.377-0.544
    c1.512,2.54,2.568,4.317,4.558,7.66c-3.284-0.795-5.196-1.258-6.909-1.673c-1.516,7.621-5.953,0.558-9.331,1.598
    c1.124,2.138,2.194,4.173,3.264,6.209c-0.21,0.151-0.421,0.303-0.632,0.454c-2.09-1.875-4.18-3.749-6.27-5.624
    c-0.201,0.136-0.401,0.271-0.602,0.406c0.978,2.361,1.955,4.724,3.224,7.786c-5.653,0.99-5.077-5.616-9.141-6.128
    c0.909,2.39,1.749,4.598,2.589,6.806c-0.33,0.29-0.662,0.58-0.992,0.87c-0.869-1.84-1.738-3.68-2.607-5.52
    c-0.67,0.493-1.341,0.986-2.011,1.479c0.168,1.639,0.337,3.277,0.438,4.28c-6.735,0.357-13.469,0.715-20.202,1.073
    c-0.175-0.258-0.351-0.516-0.526-0.773c2.563-1.056,5.125-2.111,7.688-3.167c-0.076-0.424-0.153-0.848-0.23-1.271
    c-3.651,0.666-7.304,1.331-11.506,2.098c0.293-1.861,0.623-3.968,0.955-6.073c-0.221-0.142-0.439-0.283-0.66-0.424
    c-1.101,1.661-2.201,3.322-3.45,5.207c-4.013-1.013-8.144-2.744-12.332-2.897c-3.423-0.126-6.914,1.632-11.165,2.766
    c0.212,0.374-0.298-0.525-0.738-1.299c-1.907,1.202-4.057,2.327-5.936,3.799c-2.434,1.906-4.063,2.248-4.591-1.166
    c2.43-1.706,4.678-3.283,6.926-4.861c-0.168-0.399-0.336-0.799-0.504-1.198c-1.158,0.448-2.399,0.756-3.458,1.374
    c-2.96,1.725-5.687,4.012-8.839,5.161c-1.215,0.443-3.331-1.584-5.795-2.887c-3.84,2.323-9.171,0.974-14.478-0.527
    c-4.529-1.281-8.243-3.843-11.354-7.369c-0.582-0.659-1.547-1.173-2.418-1.355c-7.346-1.539-10.203-6.031-8.435-13.452
    c0.262-1.099,0.607-2.178,0.914-3.267c-0.448-0.144-0.896-0.287-1.344-0.43c-1,3.396-2.001,6.79-2.96,10.048
    c-2.415-2.7-2.415-2.7,0.103-13.988c-1.959,4.141-3.918,8.282-6.308,13.334c-3.268-3.722-7.888-6.916-9.277-11.167
    c-1.307-3.997,0.796-9.108,0.922-13.932c-1.54,3.769-3.08,7.537-5.043,12.343c-2.511-5.75-4.915-10.607-6.636-15.696
    c-0.378-1.119,1.577-3.122,2.614-4.609c3.296-4.721,6.667-9.391,9.452-14.564c-4.112,0.57-4.512,4.696-6.598,7.153
    c-2.188,2.577-4.15,5.345-7.215,7.705c1.213-3.862,2.426-7.726,3.977-12.663c-2.257,2.815-3.763,4.693-5.268,6.571
    c-0.611-0.161-1.222-0.322-1.833-0.483c0.256-2.876,0.453-5.758,0.779-8.626c1.163-10.211,10.686-15.237,14.797-23.673
    c1.486-3.048,3.016-5.635,3.704-9.285c1.734-9.205,5.556-17.81,15.695-21.187c2.571-0.855,4.981-1.692,4.939-5.659
    c-1.761,0.505-3.045,0.874-4.33,1.242c-0.298-0.266-0.597-0.532-0.895-0.798c3.688-4.386,7.377-8.771,11.065-13.156
    c-2.444,2.598,1.3,4.44,0.827,6.813c-0.759,3.807-1.474,7.622-2.239,11.601c1.361,1.029,2.825,2.136,4.423,3.344
    c0-5.684,0.176-10.921-0.086-16.137C242.871,389.461,244.115,386.082,239.906,386.07z M337.294,451.713
    c3.554-2.431,1.809-4.487-0.211-6.911c-2.032-2.438-3.798-5.16-5.303-7.961c-1.675-3.119-2.925-6.466-4.36-9.714
    c-0.445,0.207-0.893,0.413-1.338,0.619c2.125,4.88,4.031,9.871,6.449,14.602c1.664,3.254,2.332,6.301,0.179,9.356
    c-2.22,3.149-0.004,4.302,2.22,6.1c0.988-2.11,1.814-3.874,2.641-5.639c-0.086,4.434-0.262,8.867-0.225,13.3
    c0.024,2.975-0.175,5.565-3.434,6.998c-3.55,1.56-3.23,4.054-1.043,7.126c5.281-0.655,10.585-1.313,15.889-1.972
    c-0.01-0.128-0.021-0.255-0.031-0.383c-2.855-0.354-5.711-0.709-8.635-1.071c-3.891-7.645,2.038-11.737,7.229-16.17
    c-2.846-1.388-4.734-2.309-6.634-3.234c-0.521,0.838-1.12,1.805-1.886,3.035C338.23,456.733,337.762,454.224,337.294,451.713z
     M288.185,468.331c0.921,3.188,1.1,7.271,2.391,7.659c4.59,1.381,8.268,5.698,14.253,3.523c3.564-1.296,8.821-1.028,12.112,0.756
    c4.826,2.617,6.055,1.369,6.561-3.767c2.061,0.694,3.771,1.271,5.689,1.919c0.783-3.903-1.4-3.829-3.973-3.659
    c-8.596,0.57-17.2,1.425-25.799,1.401c-7.189-0.02-9.634-4.13-7.405-11.002c0.717-2.209,1.322-4.555,2.548-6.475
    c1.865-2.922,2.087-5.533,0.875-8.837c-0.721-1.963-0.304-4.598,0.294-6.737c1.235-4.413,3.168-8.633,4.365-13.054
    c0.871-3.218,1.021-6.631,1.491-9.956c-0.263-0.169-0.526-0.338-0.79-0.506c-1.367,1.52-2.734,3.039-3.235,3.595
    c0.187,3.282,1.318,6.665,0.262,7.613c-3.583,3.22-3.169,7.466-4.231,11.343c-0.671,2.451-1.524,4.861-2.032,7.345
    c-0.722,3.535-1.202,7.12-1.785,10.685c-0.605-0.008-1.211-0.016-1.817-0.022c-0.656-2.361-1.311-4.723-1.966-7.084
    c-0.55,0.166-1.1,0.332-1.65,0.498c0,2.519,0,5.038,0,7.716c-6.458-2.574-7.854-8.351-9.285-14.103
    c-0.405,0.16-0.81,0.32-1.215,0.48c0,2.276,0,4.552,0,6.827c-0.48,0.022-0.96,0.044-1.441,0.065
    c-0.329-3.552-0.658-7.103-0.987-10.653c-0.292-0.001-0.585-0.002-0.877-0.003c-0.215,2.799-0.431,5.597-0.646,8.396
    c-0.554,0.127-1.108,0.253-1.663,0.379c-1.408-4.366-2.816-8.733-4.224-13.1c-0.243,0.009-0.487,0.017-0.73,0.025
    c0,2.897,0,5.794,0,9.896c-2.195-3.041-3.29-5.154-4.921-6.702c-4.387-4.163-6.463-8.748-4.125-14.774
    c0.254-0.656-0.722-1.79-1.126-2.703c-0.344,0.142-0.689,0.282-1.033,0.424c0,1.405,0,2.811,0,4.216
    c-0.482,0.17-0.965,0.341-1.447,0.511c-2.577-6.502-5.154-13.003-8.246-20.805c0,7.008,0,12.465,0,17.619
    c0.316-0.24,1.377-1.047,2.555-1.942c2.452,6.633,4.757,12.868,7.008,18.956c0.186-0.095,1.409-0.716,3.693-1.877
    c-0.834,2.887-1.346,4.658-1.835,6.351c11.301-1.882,8.784,5.913,8.875,12.107c0.844-1.93,1.688-3.859,2.545-5.815
    c2.683,2.477,4.776,4.408,6.957,6.421c0.43-0.103,1.385-0.328,2.552-0.605c-0.826,2.514-1.491,4.54-2.157,6.566
    c0.31,0.127,0.62,0.253,0.929,0.379c1.38-1.784,2.761-3.568,3.964-5.123c1.498,1.038,2.75,1.906,4.04,2.801
    c-0.658,1.59-1.351,3.265-2.043,4.938c0.227,0.102,0.455,0.203,0.682,0.304c1.09-1.477,2.181-2.954,3.887-5.265
    c0.683,3.07,1.121,5.041,1.571,7.064C286.415,471.212,287.167,469.989,288.185,468.331z M327.361,463.689
    c-2.87-5.876-6.803-10.477-12.729-10.312c-5.828,0.162-6.322,6.648-8.698,10.312C312.939,463.689,319.85,463.689,327.361,463.689z
     M360.789,443.244c-0.139,1.878-0.144,3.199-0.348,4.489c-0.868,5.464-2.78,6.729-4.572,4.731c-2.627,1.744-5.316,3.53-7.884,5.234
    c1.88,3.594,3.409,4.983,6.167,2.41c2.781-2.597,6.935-3.559,8.164-8.077c0.569-2.095,2.949-3.696,4.75-5.803
    C364.499,445.009,362.9,444.248,360.789,443.244z M329.146,419.788c-2.842-6.729-4.982-13.09-11.443-17.513
    c-1.891,6.766,3.308,10.437,3.871,13.654C324.642,417.493,326.529,418.455,329.146,419.788z M302.372,342.767
    c-6.186-1.175-17.828,4.434-21.211,10.275C288.221,349.621,295.299,346.192,302.372,342.767z M299.556,444.764
    c-1.08,4.002,0.701,6.555,4.141,7.684c1.301,0.427,3.145-0.803,4.743-1.276c-0.885-1.417-1.466-3.284-2.73-4.141
    C304.033,445.895,301.822,445.548,299.556,444.764z M340.186,383.515c7.674-3.269,13.885-9.261,22.211-3.982
    C355.812,373.821,343.772,375.851,340.186,383.515z M369.904,446.148c2.396-4.895,6.205-8.674,4.38-14.098
    C374.648,437.201,363.4,438.654,369.904,446.148z M321.004,450.025c0.623,0.661,1.245,1.322,1.867,1.983
    c2.313-1.287,4.985-2.221,6.769-4.03c0.745-0.756-0.4-3.374-0.687-5.145c-0.65-0.201-1.301-0.402-1.951-0.604
    C325.003,444.829,323.004,447.427,321.004,450.025z M375.003,395.771c0.558-0.389,1.114-0.777,1.672-1.166
    c-3.485-4.641-6.97-9.282-10.922-14.544c-2.347,4.876-0.388,8.267,2.136,8.205c3.289-0.079,3.352,1.892,4.447,3.449
    C373.267,393.037,374.117,394.416,375.003,395.771z M346.338,357.529c-0.201,0.666-0.402,1.332-0.604,1.998
    c6.42,1.954,12.842,3.907,19.263,5.86c0.179-0.583,0.356-1.166,0.535-1.75C359.135,361.602,352.736,359.565,346.338,357.529z
     M289.097,412.599c-3.843-1.775-6.506-3.005-9.169-4.235c0.37,0.368,0.739,0.737,1.108,1.105c-2.071,2.363-4.142,4.727-5.734,6.544
    C279.646,414.938,284.363,413.77,289.097,412.599z M291.911,511.638c6.643,1.088,12.126,1.985,17.609,2.883
    c0.078-0.464,0.158-0.929,0.236-1.393c-3.062-0.471-6.647-0.109-9.049-1.625C297.855,509.702,295.95,506.968,291.911,511.638z
     M317.841,380.281c6.228-1.361,11.599-6.021,11.607-10.269C325.563,373.45,322.129,376.487,317.841,380.281z M321.045,520.804
    c5.896,1.014,11.58-3.178,11.146-6.753C328.819,516.094,325.482,518.115,321.045,520.804z M310.628,382.747
    c-1.898,1.782-3.589,3.369-5.029,4.722c1.583,1.795,3.032,3.438,5.606,6.356C310.968,389.274,310.803,386.103,310.628,382.747z
     M373.235,496.042c-1.613-4.35-2.712-9.418-9.673-7.76C367.174,491.18,370.205,493.61,373.235,496.042z M327.609,505.236
    c-1.806,1.523-3.162,2.669-5.037,4.251c6.31-0.804,6.789-1.391,7.116-8.264c-2.118,0.836-4.025,1.589-5.933,2.342
    c0.105,0.309,0.211,0.617,0.316,0.925C325.074,504.702,326.074,504.913,327.609,505.236z M339.535,403.503
    c2.029,5.125,4.059,10.25,5.948,15.021C348.267,412.101,343.196,408.008,339.535,403.503z M365.758,428.576
    c-3.287-2.087-6.573-4.174-9.996-6.348C355.866,425.435,355.866,425.435,365.758,428.576z M306.096,491.89
    c-0.13,0.279-0.26,0.56-0.39,0.839c2.632,1.53,5.202,3.189,7.943,4.49c0.595,0.281,1.931-0.585,2.644-1.232
    c0.201-0.183-0.453-2.019-0.963-2.153C312.292,493.031,309.182,492.507,306.096,491.89z M332.271,340.182
    c-0.226-0.611-0.451-1.223-0.677-1.835c-4.114,2.119-8.229,4.237-12.343,6.355c0.213,0.397,0.426,0.796,0.638,1.193
    C324.017,343.991,328.145,342.087,332.271,340.182z M322.979,369.444c4.739-1.95,8.258-3.398,12.838-5.283
    C329.229,362.032,326.342,364.797,322.979,369.444z M352.846,404.49c0.635,0.721,1.318,1.495,2.145,2.431
    c0.75-1.566,1.431-2.985,2.11-4.405c0.575,0.469,1.151,0.938,1.728,1.407c0.24,1.217,0.481,2.433,0.67,3.381
    c0-2.381,0-4.976,0-7.939c-1.479,0.357-2.603,0.629-4.246,1.025c1.287,0.566,1.93,0.85,3.461,1.523
    C356.213,403.011,354.592,403.724,352.846,404.49z M348.343,502.151c-0.773,0.188-1.546,0.375-2.319,0.563
    c0.785,3.312,1.569,6.622,2.354,9.934c0.596-0.128,1.191-0.256,1.786-0.384C349.557,508.894,348.949,505.522,348.343,502.151z
     M286.511,371.896c-0.085,0.707-0.171,1.415-0.257,2.122c3.314,0,6.629,0,9.944,0c0.051-0.447,0.102-0.895,0.153-1.343
    C293.071,372.416,289.791,372.156,286.511,371.896z M342.966,516.741c0.857-0.373,1.714-0.747,2.571-1.12
    c-1.005-2.165-2.01-4.331-3.016-6.496c-0.682,0.353-1.992,0.902-1.953,1.026C341.27,512.379,342.136,514.555,342.966,516.741z
     M353.977,366.201c-0.36,0.741-0.721,1.482-1.082,2.224c3.18,1.374,6.357,2.747,9.537,4.121c0.289-0.578,0.578-1.156,0.867-1.734
    C360.191,369.274,357.084,367.738,353.977,366.201z M298.237,403.295c-3.83-0.565-6.221-0.919-8.471-1.251
    c-1.307,1.784-2.521,3.44-3.54,4.832C289.845,405.797,293.529,404.698,298.237,403.295z M294.405,368.106
    c-0.282-0.902-0.564-1.805-0.846-2.707c-3.004,1.145-6.007,2.29-9.011,3.436c0.177,0.565,0.353,1.131,0.529,1.697
    C288.187,369.724,291.296,368.915,294.405,368.106z M338.282,421.861c0.548-0.125,1.096-0.249,1.644-0.374
    c-0.88-3.379-1.76-6.758-2.641-10.137c-0.737,0.215-1.475,0.43-2.211,0.646C336.144,415.284,337.213,418.572,338.282,421.861z
     M311.319,511.154c0.386-0.823,0.772-1.646,1.159-2.47c-2.68-1.047-5.359-2.094-8.039-3.141c-0.218,0.432-0.436,0.864-0.654,1.296
    C306.297,508.278,308.809,509.716,311.319,511.154z M364.838,466.865c-0.487,0.392-0.975,0.783-1.462,1.176
    c2.36,2.545,4.722,5.09,7.081,7.634c0.381-0.345,0.76-0.688,1.141-1.033C369.344,472.049,367.091,469.457,364.838,466.865z
     M253.589,328.169c-3.68,1.182-4.895,3.926-2.633,8.302C251.81,333.781,252.663,331.091,253.589,328.169z M311.172,520.198
    c-0.138-0.924-0.275-1.848-0.412-2.771c-2.549,0.52-5.099,1.039-7.649,1.559c0.085,0.62,0.17,1.241,0.256,1.861
    C305.968,520.631,308.57,520.415,311.172,520.198z M330.658,376.048c6.165-1.518,6.275-1.74,3.381-5.811
    C332.813,372.344,331.736,374.196,330.658,376.048z M339.438,370.059c3.813,0.21,6.066,0.512,8.289,0.359
    c0.772-0.054,1.467-1.231,2.196-1.896c-0.774-0.42-1.665-1.326-2.302-1.174C345.29,367.909,343.045,368.822,339.438,370.059z
     M356.482,431.232c0.342-0.432,0.683-0.863,1.023-1.295c-2.229-2.333-4.456-4.666-6.685-6.999c-0.46,0.469-0.921,0.938-1.381,1.407
    C351.787,426.642,354.135,428.937,356.482,431.232z"/>
  <path fill-rule="evenodd" clip-rule="evenodd" d="M520.265,314.674c-4.145-7.34-8.24-14.708-12.447-22.013
    c-6.118-10.622-11.974-21.42-18.628-31.698c-3.283-5.069-7.905-9.348-12.273-13.625c-10.739-10.516-21.258-21.324-32.707-31.02
    c-6.559-5.555-14.203-9.697-20.188-16.245c-6.229-6.817-15.644-8.448-23.928-11.526c-12.725-4.728-25.81-8.501-38.794-12.509
    c-4.75-1.466-9.694-2.294-14.464-3.704c-2.504-0.74-4.781-2.212-7.236-3.158c-1.501-0.578-3.158-1.156-4.723-1.099
    c-7.451,0.277-14.891,0.975-22.341,1.11c-4.08,0.074-8.211-1.212-12.256-0.941c-11.407,0.764-22.908,1.297-34.128,3.295
    c-9.32,1.659-18.267,5.359-27.429,7.983c-7.434,2.129-15.102,3.552-22.363,6.139c-5.39,1.92-10.251,5.293-15.442,7.826
    c-1.519,0.741-3.356,0.837-5.054,1.199c-0.908,0.193-2.054,0.03-2.71,0.529c-5.512,4.195-11.089,8.326-16.352,12.822
    c-9.323,7.965-18.788,15.817-27.53,24.393c-6.833,6.703-12.134,15-19.134,21.491c-4.305,3.992-6.975,8.515-9.776,13.362
    c-3.355,5.807-7.687,11.049-11.056,16.849c-2.223,3.828-2.826,8.673-5.32,12.25c-6.331,9.081-9.407,19.783-12.734,29.771
    c-4.865,14.604-5.748,30.521-8.504,45.848c-2.86,15.902-1.687,31.668-0.188,47.659c1.107,11.809,5.03,22.768,7.012,34.241
    c0.536,3.1,1.511,6.13,1.945,9.24c1.203,8.613,5.952,15.634,9.802,23.125c6.563,12.771,12.446,25.894,19.052,38.642
    c2.099,4.052,5.623,7.355,8.43,11.051c5.193,6.835,9.475,14.649,15.701,20.347c9.857,9.021,20.864,16.822,31.652,24.778
    c7.556,5.572,15.342,10.903,23.412,15.689c10.673,6.329,21.329,12.913,34.289,13.89c1.781,0.135,3.359,2.342,5.127,3.435
    c1.67,1.032,3.375,2.198,5.229,2.705c3.126,0.854,6.37,1.324,9.587,1.795c8.577,1.255,17.166,2.425,25.751,3.623
    c0.329,0.046,0.752-0.086,0.984,0.076c7.712,5.363,16.763,2.567,25.117,4.008c1.828,0.315,3.921-1.181,5.938-1.643
    c17.858-4.085,35.723-8.143,53.598-12.153c2.258-0.507,4.697-0.368,6.859-1.1c6.837-2.31,13.619-4.797,20.355-7.39
    c11.145-4.29,22.328-8.505,33.306-13.196c4.06-1.734,7.726-4.532,11.313-7.191c4.801-3.559,9.588-7.2,13.955-11.263
    c6.555-6.096,12.74-12.587,19.08-18.911c0.354-0.354,0.685-0.729,1.037-1.083c5.652-5.687,11.81-10.966,16.814-17.174
    c4.752-5.895,8.606-12.589,12.302-19.239c5.132-9.236,10.347-18.508,14.418-28.229c4.271-10.199,7.23-20.947,10.773-31.452
    c0.798-2.363,1.645-4.709,2.457-7.067c0.379-1.099,0.999-2.195,1.052-3.314c0.485-10.384,0.763-20.779,1.351-31.157
    c0.181-3.204,1.427-6.343,1.653-9.55c0.335-4.735,0.103-9.509,0.309-14.258c0.069-1.595,0.738-3.163,1.133-4.743
    c0.438,0.023,0.875,0.047,1.313,0.069c0.326,0.979,0.94,1.959,0.933,2.935c-0.083,9.868,0.446,19.813-0.596,29.586
    c-1.424,13.346-3.467,26.695-6.398,39.786c-1.907,8.517-7.218,16.356-8.594,24.889c-2.077,12.89-9.993,22.145-16.454,32.466
    c-4.134,6.604-6.93,14.236-11.882,20.091c-8.644,10.219-18.388,19.521-27.871,29.008c-4.69,4.691-9.952,8.808-14.736,13.412
    c-7.883,7.588-16.903,13.292-27.053,17.313c-14.517,5.752-28.853,12.007-43.563,17.204c-8.356,2.951-17.337,4.104-25.979,6.291
    c-5.948,1.505-11.757,3.57-17.713,5.036c-2.985,0.735-6.171,0.638-9.252,1.023c-1.425,0.179-2.816,0.626-4.228,0.932
    c-4.471,0.969-8.957,2.8-13.41,2.722c-11.217-0.197-22.532,0.705-33.528-3.305c-4.324-1.576-9.54-0.503-14.192-1.429
    c-6.631-1.319-13.192-3.133-19.648-5.164c-8.521-2.682-17.415-4.819-25.24-8.923c-11.701-6.134-22.603-13.789-33.867-20.761
    c-1.541-0.954-3.33-2.575-4.805-2.38c-5.78,0.767-8.199-3.563-11.449-6.73c-4-3.897-7.535-8.496-12.104-11.542
    c-9.525-6.351-15.75-15.612-22.985-24.004c-2.493-2.892-4.899-5.887-7.06-9.031c-3.072-4.47-6.233-8.938-8.731-13.731
    c-5.827-11.182-10.388-23.129-17.145-33.689c-6.321-9.878-8.603-20.589-11.16-31.527c-2.111-9.033-4.894-17.908-7.158-26.909
    c-1.089-4.329-2.614-8.852-2.32-13.176c1.583-23.3,2.737-46.696,5.948-69.793c1.904-13.693,7.213-26.933,11.28-40.288
    c0.769-2.524,3.03-4.56,4.372-6.951c7.91-14.1,15.273-28.538,23.833-42.229c3.848-6.153,10.497-10.479,15.081-16.264
    c10.392-13.11,22.03-24.87,36.043-33.981c9.194-5.979,16.467-14.733,27.315-18.346c6.428-2.141,12.409-6.367,18.933-7.326
    c14.842-2.184,27.803-10.6,43.078-11.477c10.649-0.612,21.101-4.185,31.759-5.264c7.333-0.742,14.866,0.677,22.315,0.829
    c3.936,0.08,8.023-1.269,11.797-0.594c8.77,1.566,17.414,3.875,26.064,6.062c8.59,2.171,17.279,4.105,25.646,6.962
    c12.188,4.162,24.437,8.392,36.083,13.829c11.256,5.255,19.698,14.801,29.41,22.409c4.637,3.632,7.874,9.656,12.944,11.979
    c6.82,3.126,10.845,8.602,15.757,13.411c1.706,1.672,2.822,3.949,4.185,5.966c0.459,0.679,0.672,1.739,1.291,2.061
    c10.101,5.256,15.396,14.2,20.036,24.175c4.969,10.679,11.396,20.669,16.787,31.165c1.857,3.617,2.511,7.853,3.715,11.805
    L520.265,314.674z"/>
  <path fill-rule="evenodd" clip-rule="evenodd" d="M289.359,215.898c2.081,2.479,4.806,5.386,7.14,8.579
    c4.661,6.379,4.663,13.589,1.594,20.314c-1.314,2.881-5.011,5.806-8.124,6.513c-7.896,1.796-16.073,2.363-24.142,3.387
    c-1.647,0.209-3.312,0.325-4.972,0.372c-1.218,0.033-2.441-0.117-3.662-0.186c0.193-1.566-0.197-3.727,0.685-4.592
    c2.984-2.929,2.855-6.297,2.007-9.738c-3.098-12.566-6.317-25.103-9.577-37.627c-0.861-3.31-3.024-5.159-6.496-6.135
    c-1.796-0.505-3.096-2.78-4.62-4.256c1.763-0.907,3.491-2.518,5.295-2.607c10.624-0.531,21.263-0.786,31.9-0.982
    c13.003-0.24,16.993,6.66,17.168,17.592C293.603,209.407,291.042,212.323,289.359,215.898z M289.399,236.779
    c-2.796-16.151-6.699-21.1-20.497-17.615c-1.314,0.332-3.201,2.6-3.07,3.772c0.921,8.245,2.265,16.445,3.583,24.643
    c0.171,1.064,0.711,2.363,1.519,2.976c2.273,1.722,13.776-1.046,14.955-3.743C287.466,243.201,288.518,239.361,289.399,236.779z
     M259.827,193.474c1.043,5.625,1.998,10.969,3.03,16.298c1.292,6.667,1.313,6.636,8.12,5.138c2.583-0.568,5.182-1.144,7.805-1.433
    c3.084-0.341,4.12-1.824,4.157-4.918C283.08,196.792,273.181,190.065,259.827,193.474z"/>
  <path fill-rule="evenodd" clip-rule="evenodd" d="M198.869,213.925c1.521-3.856,12.982-12.018,16.23-11.516
    c3.505,0.542,1.694,2.702,1.058,4.481c-1.831,5.122-4.024,10.164-5.277,15.428c-1.062,4.46-1.212,9.182-1.317,13.797
    c-0.027,1.178,1.45,2.637,2.576,3.544c2.827,2.279,6.037,4.103,8.756,6.491c8.02,7.047,16.941,11.025,27.862,9.18
    c1.033-0.175,2.141,0.098,3.379,0.173c-2.939,6.134-12.614,9.781-20.041,6.997c-4.897-1.836-9.87-4.424-13.719-7.886
    c-5.991-5.389-11.752-8.422-20.633-3.04c5.963,6.593,11.643,13.143,17.718,19.304c0.94,0.954,3.697,0.235,5.598,0.086
    c1.489-0.117,2.954-0.552,5.22-1.002c-6.361,5.681-11.915,10.641-17.468,15.6c0.187,0.66,0.374,1.319,0.561,1.979
    c-0.593-1.64-1.198-3.275-1.776-4.92c-1.154-3.28-1.494-7.232-3.579-9.732c-8.175-9.806-16.902-19.151-25.415-28.676
    c-2.662-2.979-5.079-6.117-9.743-6.182c-2.648-0.037-3.154-2.031-1.333-3.716c4.999-4.626,10.173-9.069,15.413-13.422
    c0.686-0.57,2.45-0.62,3.189-0.126c0.725,0.484,0.856,1.955,1.087,3.028c0.091,0.424-0.244,0.944-0.396,1.418
    c-1.001,3.125-3.728,7.158-2.657,9.189c2.409,4.568,6.53,8.325,10.382,11.96c0.701,0.661,4.009-0.269,5.128-1.421
    c5.573-5.739,8.265-12.507,7.519-20.822C206.451,215.853,206.526,215.369,198.869,213.925z"/>
  <path fill-rule="evenodd" clip-rule="evenodd" d="M431.069,332.331c10.905-16.246,22.052-32.357,30.167-50.17
    c-0.322-0.361-0.645-0.722-0.966-1.082c-2.024,0.87-4.192,1.509-6.05,2.65c-9.909,6.091-19.668,12.428-29.634,18.422
    c-4.106,2.471-6.287,5.229-4.425,10.171c0.455,1.208,0.067,2.734,0.067,4.949c-1.557-0.931-2.401-1.165-2.808-1.721
    c-3.418-4.67-6.817-9.356-10.054-14.152c-0.518-0.768-0.35-2.134-0.151-3.156c0.052-0.264,1.665-0.648,2.156-0.338
    c9.432,5.971,16.479-0.559,23.764-4.713c8.52-4.858,16.683-10.336,25.089-15.397c5.72-3.443,6.93-6.378,4.659-12.736
    c-0.445-1.249-1.613-2.444-1.557-3.621c0.096-1.946,0.916-3.856,1.432-5.782c1.644,0.451,3.958,0.367,4.816,1.443
    c4.341,5.445,8.025,11.763,5.855,18.759c-2.233,7.201-5.951,13.99-9.444,20.74c-3.93,7.595-8.333,14.944-12.53,22.4
    c0.296,0.348,0.592,0.694,0.889,1.041c1.741-0.641,3.583-1.093,5.208-1.954c7.782-4.124,15.517-8.339,23.246-12.562
    c6.663-3.641,7.89-5.937,7.007-12.835c5.059-0.178,12.898,11.852,12.751,20.568c-1.876-1.571-3.661-2.512-4.64-3.987
    c-3.154-4.756-7.149-4.084-11.266-1.973c-10.94,5.611-21.776,11.427-32.709,17.054c-6.408,3.299-12.921,6.394-19.387,9.58
    C432.061,333.396,431.565,332.864,431.069,332.331z"/>
  <path fill-rule="evenodd" clip-rule="evenodd" d="M367.15,210.203c-0.368-9.82-7.172-8.48-12.957-8.989
    c-5.627-0.495-11.271-0.911-16.855-1.724c-3.656-0.532-5.311,0.646-5.516,4.303c-0.252,4.48-0.798,8.946-0.945,13.427
    c-0.033,1.021,0.784,2.574,1.658,3.035c3.801,2.009,12.551,0.25,15.811-2.729c0.971-0.889,2.386-1.291,3.598-1.916
    c0.066,1.458,0.275,2.926,0.166,4.371c-0.147,1.95-0.52,3.887-0.831,5.823c-0.241,1.496-0.538,2.983-0.81,4.475
    c-0.676,0.39-1.352,0.78-2.027,1.17c-0.437-1.094-0.937-2.167-1.299-3.285c-1.076-3.329-3.674-3.902-6.711-3.936
    c-9.82-0.108-9.913-0.142-10.684,9.947c-0.98,12.849-2.662,10.225,10.561,14.355c2.511,0.784,5.342,1.423,7.865,1.052
    c2.898-0.427,5.711-1.874,8.385-3.226c1.625-0.821,2.92-2.299,4.362-3.481c0.444,0.247,0.89,0.494,1.334,0.741
    c-0.972,4.051-1.665,8.206-3.11,12.081c-0.359,0.963-3.211,1.581-4.81,1.403c-11.88-1.326-23.743-2.816-35.581-4.479
    c-1.479-0.208-2.775-1.73-4.156-2.644c1.174-1.384,2.406-2.721,3.502-4.162c1.363-1.793,3.605-3.6,3.746-5.526
    c0.904-12.425,1.186-24.894,2.012-37.325c0.289-4.343-0.281-7.806-4.183-10.338c-0.806-0.522-1.382-2.194-1.194-3.169
    c0.121-0.638,1.861-1.465,2.792-1.37c14.515,1.474,29.03,2.959,43.513,4.717c6.806,0.826,7.408,1.778,6.51,8.662
    c-0.35,2.675-1.433,5.253-2.182,7.875C368.459,209.629,367.805,209.916,367.15,210.203z"/>
  <path fill-rule="evenodd" clip-rule="evenodd" d="M440.155,228.155c6.926,5.112,11.068,12.451,15.234,19.771
    c-0.283,0.372-0.567,0.744-0.852,1.116c-1.559-0.91-3.3-1.611-4.643-2.773c-3.564-3.082-6.958-3.36-10.722-0.311
    c-12.913,10.461-25.879,20.857-38.869,31.222c-1.523,1.215-3.327,2.079-5.616,2.602c5.203-17.222,8.632-34.409,11.091-51.789
    c-0.509-0.321-1.018-0.643-1.526-0.963c-4.654,4.56-9.437,8.997-13.921,13.718c-3.659,3.853-6.833,8.166-10.468,12.045
    c-2.504,2.672-3.089,5.243-1.4,8.551c0.763,1.496,0.874,3.324,1.281,5.002c-0.423,0.333-0.846,0.667-1.269,1
    c-4.903-3.69-9.807-7.381-15.173-11.421c1.591-1.117,2.168-1.861,2.625-1.794c8.131,1.205,12.303-4.621,16.965-9.504
    c6.657-6.974,13.253-14.007,19.846-21.042c5.825-6.216,5.948-6.327,1.209-13.4c-1.909-2.849-2.358-5.17,0.571-7.209
    c0.768-0.535,2.734-0.479,3.388,0.128c6.776,6.294,10.993,13.227,8.119,23.307c-3.091,10.841-5.03,22.012-7.427,33.049
    c-0.414,1.909-0.597,3.868,0.156,6.715c4.661-3.471,9.438-6.801,13.953-10.452c5.037-4.074,9.63-8.722,14.814-12.583
    c3.51-2.613,4.188-5.151,2.282-8.893c-0.77-1.511-0.999-3.297-1.475-4.957C438.939,228.911,439.547,228.533,440.155,228.155z"/>
  <path fill-rule="evenodd" clip-rule="evenodd" d="M174.505,443.962c-5.637-3.515-9.503-7.288-14.041-8.454
    c-8.052-2.069-16.481-3.143-24.806-3.553c-9.616-0.474-19.291,0.369-28.938,0.329c-3.377-0.015-4.753,1.088-5.102,4.418
    c-0.326,3.112-1.035,6.242-2.053,9.199c-0.456,1.325-2.079,2.249-3.172,3.354c-0.815-1.322-2.233-2.596-2.347-3.976
    c-0.691-8.441-1.102-16.907-1.572-25.366c-0.173-3.11-0.426-6.233-0.281-9.334c0.049-1.052,1.21-2.053,1.862-3.076
    c0.987,0.768,2.453,1.338,2.864,2.341c1.001,2.439,1.619,5.056,2.194,7.645c0.738,3.322,2.552,5.391,6.04,5.607
    c3.138,0.195,6.304,0.497,9.426,0.287c10.114-0.68,20.211-2.177,30.321-2.228c11.982-0.059,20.987,6.403,27.903,15.777
    C173.861,438.366,173.753,440.657,174.505,443.962z"/>
  <path fill-rule="evenodd" clip-rule="evenodd" d="M188.396,302.543c-1.581,6.803-2.921,13.175-7.801,16.778
    c-5.795,4.278-13.226,4.975-19.958,1.745c-12.226-5.863-23.216-13.401-31.281-24.741c-8.333-11.717-3.307-28.301,10.338-33.039
    c1.257-0.437,2.524-1.013,3.822-1.131c2.106-0.192,5.813-0.661,6.084,0.046c0.998,2.6,1.108,5.648,0.947,8.494
    c-0.034,0.597-2.61,1.374-4.064,1.5c-3.123,0.271-6.382-0.314-9.399,0.326c-6.104,1.295-8.25,7.02-4.197,11.711
    c7.576,8.771,15.095,17.703,23.621,25.492c4.339,3.963,10.647,6.102,16.418,7.976c1.872,0.607,5.814-1.614,7.169-3.64
    c3.825-5.718,2.23-13.252-3.578-17.809c-3.253-2.553-2.168-3.948,0.022-6.237c2.391-2.498,4.34-2.452,5.913,0.426
    C184.607,294.381,186.431,298.501,188.396,302.543z"/>
  <path fill-rule="evenodd" clip-rule="evenodd" d="M499.29,375.256c0.518-1.124,0.752-2.926,1.617-3.313
    c6.431-2.87,4.961-8.528,4.39-13.301c-1.139-9.526-1.455-9.491-11.134-8.065c-3.951,0.582-7.951,0.957-11.828,1.858
    c-1.779,0.413-4.798,2.047-4.704,2.821c0.385,3.209,1.581,6.369,2.859,9.388c0.313,0.741,2.213,0.676,3.095,1.355
    c0.668,0.515,1.163,1.618,1.178,2.47c0.008,0.472-1.148,1.402-1.746,1.375c-4.697-0.213-9.386-0.608-14.077-0.947
    c-0.097-0.534-0.193-1.068-0.29-1.604c1.105-0.794,2.153-1.689,3.327-2.365c3.507-2.018,3.008-5.082,2.489-8.334
    c-0.534-3.354-2.857-3.864-5.483-3.688c-5.305,0.357-10.685,0.521-15.841,1.646c-1.695,0.369-3.631,3.312-3.986,5.336
    c-0.624,3.545-0.746,7.454,0.149,10.892c0.583,2.239,3.307,3.942,5.131,5.828c1.031,1.065,2.183,2.014,3.279,3.015
    c-1.336,0.806-2.589,1.866-4.033,2.337c-1.207,0.394-2.639,0.109-3.971,0.103c-7.764-0.041-7.188-0.034-7.063-7.782
    c0.15-9.275-0.903-18.566-1.2-27.858c-0.053-1.662,1.041-3.361,1.604-5.043c1.369,0.973,3.362,1.647,3.997,2.973
    c2.409,5.026,6.173,6.201,11.411,5.602c13.362-1.529,26.756-2.798,40.154-3.979c3.466-0.307,4.981-1.982,5.616-5.175
    c0.281-1.413,0.893-2.978,1.867-3.97c0.887-0.903,2.723-1.814,3.674-1.462c1.018,0.376,2.076,2.211,2.107,3.435
    c0.252,9.941,0.408,19.891,0.312,29.834C512.11,376.752,507.16,379.352,499.29,375.256z"/>
  <path fill-rule="evenodd" clip-rule="evenodd" d="M166.835,338.911c2.428,6.593,0.841,12.188-1.468,19.199
    c-5.096-8.257-11.969-5.615-18.29-5.046c-1.402,0.126-3.52,1.688-3.819,2.944c-0.956,4.007-1.372,8.171-1.619,12.296
    c-0.06,1,1.14,2.334,2.097,3.084c2.478,1.94,5.167,3.608,7.729,5.445c3.301,2.367,6.502,4.748,8.705-1.219
    c0.218-0.591,1.994-1.279,2.375-1.002c0.822,0.6,1.717,1.816,1.685,2.749c-0.165,4.734-0.617,9.458-1.049,15.277
    c-1.89-1.415-3.674-2.06-4.2-3.258c-3.604-8.202-11.766-10.862-18.413-15.207c-8.615-5.632-17.643-10.633-26.516-15.866
    c-2.997-1.768-6.146-3.29-9.053-5.188c-0.941-0.614-2.05-2.29-1.805-3.09c0.359-1.176,1.71-2.433,2.921-2.867
    c1.492-0.535,3.274-0.269,4.932-0.334c15.058-0.593,30.114-1.24,45.175-1.735C160.758,344.945,164.686,344.065,166.835,338.911z
     M117.313,354.291c-0.167,0.58-0.334,1.16-0.502,1.74c6.564,3.932,13.129,7.864,20.9,12.52c1.002-5.793,1.76-10.174,2.649-15.308
    C131.991,353.624,124.652,353.957,117.313,354.291z"/>
  <path fill-rule="evenodd" clip-rule="evenodd" d="M444.396,429.663c-0.22-1.538-0.598-3.074-0.629-4.616
    c-0.082-3.986-0.223-7.994,0.104-11.956c0.13-1.566,1.437-3.036,2.208-4.549c1.175,1.064,2.275,2.229,3.54,3.175
    c2.919,2.181,5.77,5.813,8.907,6.109c15.557,1.474,31.208,1.917,46.803,3.041c4.483,0.323,6.623-1.048,6.63-5.541
    c0-0.165,0.037-0.331,0.062-0.495c0.891-5.933,2.017-11.964-6.988-13.762c0.281-0.521,0.563-1.041,0.845-1.562
    c2.39-0.332,4.78-0.932,7.171-0.932c3.137-0.001,7.089-0.623,9.233,0.976c4.009,2.989-2.059,4.639-2.239,7.718
    c-0.544,9.289-2.163,18.511-2.883,27.797c-0.171,2.193,1.777,4.48,2.286,6.826c0.247,1.14-0.44,3.555-0.938,3.62
    c-5.462,0.722-10.97,1.093-16.465,1.559c-0.186-0.661-0.371-1.323-0.557-1.985c1.518-0.945,3.298-1.641,4.489-2.896
    c1.672-1.76,3.076-3.843,4.247-5.979c0.494-0.901-0.127-2.345,0.146-3.445c2.015-8.098,1.432-8.748-8.835-9.243
    c-10.297-0.497-20.555-1.771-30.851-2.322c-9.396-0.503-18.873-0.655-24.839,9.354
    C445.362,430.258,444.879,429.961,444.396,429.663z"/>
  <path fill-rule="evenodd" clip-rule="evenodd" d="M200.5,574.731c5.339,3.965,10.744,5.218,16.551,1.281
    c4.922-3.337,7.5-7.942,7.713-13.754c0.175-4.76-1.615-6.389-5.67-4.167c-5.71,3.129-10.774,7.448-16.059,11.335
    c-0.914,0.672-1.413,1.947-2.359,2.527c-0.838,0.515-2.032,0.45-3.068,0.642c-0.09-1.061-0.593-2.317-0.199-3.146
    c1.614-3.392,3.501-6.653,4.507-10.646c-2.694,2.283-5.318,4.656-8.106,6.819c-1.953,1.515-3.983,3.1-6.237,4.019
    c-4.477,1.826-7.98-0.634-8.17-5.475c-0.109-2.772-0.02-5.553-0.02-7.96c1.793-1.968,3.515-3.855,5.235-5.744
    c2.015-2.212,3.988-4.464,6.053-6.629c2.148-2.253,5.035-3.718,7.33-1.211c0.937,1.022,0.203,4.863-1.048,6.338
    c-2.751,3.241-6.297,5.813-9.563,8.607c-0.75,0.643-2.184,0.915-2.423,1.646c-0.662,2.025-0.86,4.203-1.241,6.321
    c1.795-0.133,4.21,0.437,5.285-0.512c7.337-6.478,14.722-12.962,21.44-20.061c5.814-6.143,10.75-13.116,16.136-19.67
    c0.556-0.677,1.544-0.998,2.332-1.484c0.456,0.303,0.912,0.604,1.368,0.907c-0.957,1.738-1.76,3.585-2.897,5.196
    c-5.93,8.41-11.965,16.746-17.907,25.148c-0.813,1.148-1.312,2.52-2.59,5.035c4.552-2.325,7.753-4.247,11.168-5.643
    c5.984-2.446,9.161-0.78,9.902,5.43c0.879,7.364-2.3,13.289-7.809,17.974c-5.057,4.3-10.868,4.852-16.838,2.401
    c-1.673-0.687-2.847-2.588-4.25-3.933C199.544,575.793,200.022,575.263,200.5,574.731z"/>
  <path fill-rule="evenodd" clip-rule="evenodd" d="M178.758,506.087c4.769,1.856,7.018-3.627,10.837-6.05
    c1.74-1.104,3.848-1.627,5.79-2.413c-0.772,2.271-1.376,4.619-2.393,6.774c-0.446,0.945-1.629,1.732-2.656,2.187
    c-14.92,6.599-24.86,19.281-36.436,29.932c-1.94,1.785-2.843,4.698-4.828,8.133c9.456,0.431,13.744-6.915,20.309-8.869
    c0.427,0.442,0.854,0.885,1.28,1.327c-1.11,1.402-2.041,3.009-3.363,4.17c-4.37,3.837-8.497,7.708-7.021,14.357
    c0.136,0.613,0.458,1.185,1.134,2.879c20.804-11.563,28.917-32.343,41.025-50.824c-0.143,1.515,0.157,3.264-0.501,4.506
    c-3.8,7.175-7.57,14.389-11.838,21.287c-5.673,9.17-10.831,18.976-20.743,24.461c-3.101,1.716-7.464,3.722-10.28,2.759
    c-3.939-1.346-3.423-6.243-2.811-10.142c0.073-0.467-0.054-0.966-0.104-1.689c-0.617-0.129-1.229-0.255-1.841-0.384
    c-2.573-0.542-6.434-0.296-7.378-1.837c-1.077-1.759-0.471-5.873,0.998-7.632c5.509-6.601,11.616-12.71,17.613-18.892
    c2.079-2.143,4.656-3.804,6.705-5.97C174.456,511.834,176.3,509.175,178.758,506.087z"/>
  <path fill-rule="evenodd" clip-rule="evenodd" d="M135.33,454.834c12.248,0,24.497-0.048,36.744,0.064
    c1.438,0.014,2.868,0.908,4.302,1.395c-1.024,1.399-1.762,3.501-3.129,4.056c-3.167,1.285-6.609,2.395-9.991,2.567
    c-17.709,0.903-35.432,1.58-53.158,2.064c-1.909,0.052-5.319-1.403-5.513-2.577c-0.481-2.902,1.619-4.832,4.907-4.782
    c0.492,0.007,0.984-0.173,1.48-0.201c8.115-0.456,16.231-0.901,24.347-1.35C135.323,455.658,135.326,455.246,135.33,454.834z"/>
  <path fill-rule="evenodd" clip-rule="evenodd" d="M514.464,456.881c-7.216,0.237-14.436,0.775-21.645,0.649
    c-16.785-0.295-33.566-0.844-50.342-1.485c-1.937-0.073-5.406-1.275-5.462-2.132c-0.233-3.544,2.925-4.021,5.625-4.033
    c11.98-0.055,23.964-0.094,35.941,0.139c9.308,0.181,18.63,0.514,27.896,1.331c2.902,0.256,5.646,2.306,8.462,3.535
    C514.781,455.55,514.623,456.216,514.464,456.881z"/>
  <path fill-rule="evenodd" clip-rule="evenodd" d="M260.81,603.924c8.483-2.277,14.966-9.159,16.828-18.537
    c2.106-10.609,4.137-21.234,6.321-31.827c0.54-2.622,1.544-5.149,2.334-7.72c0.592,0.142,1.185,0.283,1.777,0.424
    c-2.405,12.609-4.809,25.218-7.217,37.847c0.751,0.094,1.22,0.24,1.274,0.146c5.381-9.326,10.821-18.621,15.995-28.062
    c0.894-1.63,0.937-3.89,0.884-5.846c-0.196-7.227-6.039-10.437-12.121-6.5c-7.375,4.775-14.435,9.986-18.179,19.208
    c-2.853-4.978,0.331-7.928,2.577-10.108c4.75-4.613,9.896-9.007,15.516-12.45c2.528-1.549,7.677-2.015,9.684-0.456
    c2.88,2.236,5.555,6.816,5.457,10.316c-0.142,5.08-2.028,10.55-4.592,15.043c-7.498,13.139-15.153,26.291-26.799,36.406
    c-1.596,1.387-3.527,2.635-5.517,3.226C263.839,605.388,262.231,604.341,260.81,603.924z"/>
  <path fill-rule="evenodd" clip-rule="evenodd" d="M150.451,475.689c6.834,0.13,10.938,4.206,10.912,10.84
    c-0.026,6.757-6.557,13.988-12.458,13.793c-7.265-0.238-10.845-4.778-10.827-13.726C138.09,480.46,143.648,475.561,150.451,475.689
    z"/>
  <path fill-rule="evenodd" clip-rule="evenodd" d="M473.096,487.213c-6.801-0.044-11.792-4.32-11.916-10.207
    c-0.129-6.118,5.89-10.772,13.812-10.682c5.015,0.058,9.412,5.59,9.519,11.977C484.584,482.675,478.726,487.249,473.096,487.213z"
    />
  <path fill-rule="evenodd" clip-rule="evenodd" d="M318.167,567.857c2.099,6.524,4.198,13.049,6.728,20.909
    c6.682-8.446,5.047-18.398,8.876-26.298c0.503,0.097,1.007,0.194,1.509,0.292c-0.371,2.575-0.52,5.208-1.158,7.716
    c-1.551,6.088-3.027,12.225-5.135,18.127c-1.145,3.207-3.745,5.295-6.676,2.971c-3.335,3.109-6.145,6.392-9.58,8.768
    c-4.436,3.067-7.736,1.591-9.445-3.618c-0.568-1.73-0.799-3.569-1.219-5.351c-0.628-2.664-1.288-5.321-1.857-7.668
    c1.135-2.883,2.267-5.725,3.374-8.577c0.6-1.547,0.719-3.658,1.83-4.546c1.995-1.595,4.574-2.46,6.908-3.63
    c0.75,2.179,2.633,4.77,2.021,6.453c-1.424,3.917-3.608,7.774-6.313,10.947c-2.683,3.146-3.676,10.135-0.661,12.862
    c0.716,0.648,2.144,0.961,3.129,0.784c6.085-1.094,11.146-9.313,9.44-15.32c-0.905-3.188-2.348-6.236-3.084-9.454
    c-0.413-1.807,0.119-3.83,0.225-5.756C317.439,567.599,317.804,567.728,318.167,567.857z M311.135,570.208
    c-4.327,2.583-5.9,6.789-4.432,11.204C310.084,578.43,312.032,575.096,311.135,570.208z"/>
  <path fill-rule="evenodd" clip-rule="evenodd" d="M359.469,543.797c0.502,1.036,1.275,2.027,1.459,3.117
    c1.181,7.031,2.164,14.096,3.344,21.127c1.284,7.652,3.752,10.36,9.762,11.052c-2.893,3.994-3.895,3.802-10.5-2.127
    c-1.965,2.747-3.621,5.771-5.937,8.154c-4.529,4.66-9.611,4.297-14.313-0.127c-1.352-1.271-3.574-1.617-4.473-1.997
    c0.736-4.029,1.225-7.91,2.197-11.667c0.987-3.815,2.279-7.581,3.82-11.206c0.44-1.038,2.205-1.514,3.363-2.246
    c0.688,1.232,2.109,2.579,1.938,3.678c-0.807,5.185-1.791,10.376-3.247,15.41c-0.734,2.537-2.829,4.917-0.081,7.177
    c2.844,2.34,5.945,1.829,8.686-0.389c4.939-3.997,6.986-9.254,5.983-15.504c-0.921-5.743-2.224-11.425-3.202-17.159
    c-0.379-2.222-0.329-4.516-0.475-6.776C358.352,544.142,358.91,543.969,359.469,543.797z M347.754,563.351
    c-0.771-0.15-1.543-0.302-2.314-0.452c-0.56,3.433-1.119,6.866-1.679,10.299c0.611,0.109,1.224,0.218,1.835,0.326
    C346.314,570.133,347.035,566.741,347.754,563.351z"/>
  <path fill-rule="evenodd" clip-rule="evenodd" d="M442.271,271.338c-0.032,5.479-4.776,10.56-9.834,10.534
    c-4.637-0.023-9.594-5.501-9.436-10.425c0.158-4.897,4.974-9.069,10.542-9.134C439.176,262.248,442.306,265.484,442.271,271.338z"
    />
  <path fill-rule="evenodd" clip-rule="evenodd" d="M407.539,576.559c-0.908-0.905-2.136-1.652-2.674-2.741
    c-3.82-7.73-7.574-15.496-11.185-23.327c-1.376-2.984,2.008-13.461,4.702-15.302c2.614-1.786,4.695-0.912,6.392,1.43
    c3.193,4.409,3.215,18.105-0.554,21.847c-2.289,2.271-1.741,3.813-0.563,5.992c1.954,3.617,3.788,7.3,5.673,10.955
    C408.733,575.794,408.136,576.177,407.539,576.559z M405.102,546.436c-0.181-1.783,0.039-3.13-0.486-4.053
    c-1.042-1.831-2.494-3.428-3.776-5.122c-1.198,1.832-3.357,3.646-3.392,5.5c-0.07,3.722,0.913,7.487,1.707,11.183
    c0.197,0.914,1.335,1.625,2.04,2.43c0.832-0.905,2.086-1.682,2.41-2.742C404.375,551.113,404.706,548.46,405.102,546.436z"/>
  <path fill-rule="evenodd" clip-rule="evenodd" d="M431.569,537.065c-0.679,6.957-5.039,9.547-10.822,8.211
    c-1.519-0.351-3.28,0.307-4.922,0.551c-1.104,0.165-2.193,0.418-3.711,0.125c3.819-2.992,4.108-6.325,3.317-10.611
    c-0.492-2.663,1.048-5.777,1.993-8.582c0.292-0.867,1.774-2.053,2.454-1.905c1.076,0.232,2.717,1.438,2.747,2.281
    c0.115,3.229-0.361,6.474-0.524,9.718c-0.093,1.83-0.005,3.67,0.001,5.505c2.139-0.461,4.458-0.56,6.354-1.506
    C429.792,540.186,430.552,538.369,431.569,537.065z"/>
  <path fill-rule="evenodd" clip-rule="evenodd" d="M390.021,558.27c-4.779-2.949-7.917-2.523-10.305,1.398
    c-2.269,3.728-1.256,9.132,2.095,11.182c2.944,1.801,5.979-0.7,9.519-7.844c1.398,4.619-1.627,10.071-6.218,11.206
    c-4.684,1.158-8.789-2.734-9.534-9.041c-0.681-5.759,3.841-11.93,9.102-12.422C388.116,552.427,390.113,554.491,390.021,558.27z"/>
  <path fill-rule="evenodd" clip-rule="evenodd" d="M429.639,519.148c1.138,1.036,2.275,2.072,3.293,3
    c2.534-7.021,5.001-13.854,7.468-20.689c0.513,0.182,1.025,0.362,1.538,0.543c-1.606,5.49-4.452,10.977-4.472,16.473
    c-0.02,5.527,2.773,11.065,4.333,16.599c-0.381,0.31-0.761,0.619-1.142,0.928c-4.176-5.222-8.351-10.443-12.526-15.665
    C428.634,519.94,429.136,519.545,429.639,519.148z"/>
  <path fill-rule="evenodd" clip-rule="evenodd" d="M520.153,314.794c5.453,6.081,7.805,13.604,9.783,21.27
    c1.005,3.894,1.729,7.86,2.579,11.794c-0.43,0.151-0.86,0.303-1.29,0.454c-0.458-0.698-1.073-1.34-1.349-2.104
    c-2.962-8.216-5.965-16.42-8.727-24.703c-0.712-2.134-0.62-4.536-0.892-6.823C520.265,314.674,520.153,314.794,520.153,314.794z"/>
  <path fill-rule="evenodd" clip-rule="evenodd" d="M533.095,351.488c1.015,10.637,2.03,21.272,3.12,32.692
    c-1.391-0.787-2.746-1.152-2.792-1.64c-0.954-10.273-1.76-20.561-2.596-30.846C531.583,351.627,532.339,351.558,533.095,351.488z"
    />
  <path fill-rule="evenodd" clip-rule="evenodd" d="M290.797,530.451c0.458-4.803,5.192-7.325,9.886-5.189
    C297.385,526.993,294.064,528.736,290.797,530.451z"/>
</g>
</svg>
