<?xml version="1.0" encoding="UTF-8" standalone="no"?>
<svg
   xmlns:dc="http://purl.org/dc/elements/1.1/"
   xmlns:cc="http://creativecommons.org/ns#"
   xmlns:rdf="http://www.w3.org/1999/02/22-rdf-syntax-ns#"
   xmlns:svg="http://www.w3.org/2000/svg"
   xmlns="http://www.w3.org/2000/svg"
   xmlns:sodipodi="http://sodipodi.sourceforge.net/DTD/sodipodi-0.dtd"
   xmlns:inkscape="http://www.inkscape.org/namespaces/inkscape"
   version="1.1"
   viewBox="0 10 442 170"
   id="svg2"
   inkscape:version="0.91 r13725"
   sodipodi:docname="banner.svg">
  <metadata
     id="metadata14">
    <rdf:RDF>
      <cc:Work
         rdf:about="">
        <dc:format>image/svg+xml</dc:format>
        <dc:type
           rdf:resource="http://purl.org/dc/dcmitype/StillImage" />
        <dc:title></dc:title>
      </cc:Work>
    </rdf:RDF>
  </metadata>
  <defs
     id="defs12" />
  <sodipodi:namedview
     pagecolor="#ffffff"
     bordercolor="#666666"
     borderopacity="1"
     objecttolerance="10"
     gridtolerance="10"
     guidetolerance="10"
     inkscape:pageopacity="0"
     inkscape:pageshadow="2"
     inkscape:window-width="640"
     inkscape:window-height="480"
     id="namedview10"
     showgrid="false"
     inkscape:zoom="0.65158371"
     inkscape:cx="221"
     inkscape:cy="85"
     inkscape:window-x="0"
     inkscape:window-y="0"
     inkscape:window-maximized="0"
     inkscape:current-layer="svg2" />
  <style
     type="text/css"
     id="style4">
    text {
      font: 100px 'Homestead Display';
      fill: #493a2c;
    }
  </style>
  <g
     style="font-style:normal;font-variant:normal;font-weight:normal;font-stretch:normal;font-size:100px;line-height:normal;font-family:'Homestead Display';fill:#493a2c"
     id="text6">
    <path
       d="m 215,26.6 14,14 0,1.8 -14,-14 0,-1.8 z m 0,3.4 14,14 0,15 q 0,4.4 -1.7,8.2 -1.6,3.8 -4.5,6.7 -2.8,2.8 -6.7,4.5 -3.8,1.6 -8.1,1.6 -0.5,0 -1,0 -0.4,0 -0.9,-0.1 l 1.9,-1.9 0,-0.9 -2.7,2.7 q -0.5,-0.1 -1.1,-0.1 -0.5,-0.1 -1,-0.3 l 4.8,-4.8 0,-0.9 -5.5,5.6 q -0.5,-0.2 -1,-0.3 -0.4,-0.1 -0.9,-0.3 l 7.4,-7.4 0,-0.9 -8,8 q -0.8,-0.3 -1.7,-0.8 l 9.7,-9.7 0,-0.9 -10.3,10.3 q -0.4,-0.2 -0.8,-0.4 -0.3,-0.3 -0.7,-0.6 l 10.4,-10.4 q 0.5,0.1 1.4,0.1 2.9,0 4.9,-2 2.1,-2.1 2.1,-5 l 0,-15.5 1.5,1.5 1.6,0 -3.1,-3.1 0,-1.8 4.9,4.9 1.6,0 -6.5,-6.5 0,-1.8 8.3,8.3 1.5,0 -9.8,-9.8 0,-1.8 11.6,11.6 1.6,0 L 215,31.8 215,30 Z m -14,23.7 -12.7,12.6 -0.6,-1.8 12.5,-12.5 0.8,0 0,1.7 z M 199.3,52 187.5,63.7 q -0.1,-0.5 -0.2,-1 0,-0.6 -0.1,-1.1 l 9.6,-9.6 2.5,0 z m -3.4,0 -8.8,8.8 q -0.1,-0.5 -0.1,-0.9 0,-0.4 0,-0.9 l 0,-0.6 6.4,-6.4 2.5,0 z m 17.9,-42 -5.8,5.8 0,-2.5 3.3,-3.3 2.5,0 z m -3.4,0 -2.4,2.4 0,-2.4 2.4,0 z M 201,57.1 189.4,68.7 q -0.2,-0.5 -0.4,-0.8 -0.2,-0.4 -0.4,-0.9 l 12.4,-12.4 0,2.5 z m -11.9,-5.1 -2.1,2.1 0,-2.1 2.1,0 z m 3.4,0 -5.5,5.5 0,-2.5 3,-3 2.5,0 z m 42,-28 1.5,-1.5 0,1.5 -1.5,0 z m -3.4,0 4.9,-4.9 0,2.5 -2.4,2.4 -2.5,0 z m -2.2,-5.4 -0.8,0.8 0.4,0.4 7.5,-7.5 0,2.5 -7,7 0,0.3 -0.1,-0.1 -0.8,0.7 0.4,0.5 7.5,-7.5 0,2.5 -5.8,5.8 -1.2,0 0,1.5 -1.8,-1.9 -0.4,0.4 -0.9,0 3.1,3.1 0,1.7 -5.2,-5.2 -0.4,0.4 -0.8,0 6.4,6.4 0,1.8 -8.6,-8.6 -0.3,0.4 -0.9,0 9.8,9.8 0,1.8 -12,-12 -0.3,0.4 -0.9,0 13.2,13.2 0,1.8 -14,-14 0,-1 -0.8,0 1.6,-1.6 -0.5,-0.4 -2,2 -2.5,0 5,-5 -0.5,-0.4 -5.4,5.4 -1.9,0 0,-0.6 7.8,-7.8 -0.5,-0.4 -7.3,7.3 0,-2.5 7.8,-7.8 -0.5,-0.4 -7.3,7.3 0,-2.5 6.6,-6.6 16.1,0 -1.7,1.7 0,0.2 -0.1,-0.1 -0.8,0.8 0.4,0.4 3.1,-3 2.5,0 -5.1,5.1 0,0.2 -0.1,-0.1 -0.8,0.8 0.4,0.4 6.4,-6.4 1.1,0 0,1.4 -7,7 0,0.3 -0.1,-0.1 z m -11.4,2.1 -0.5,-0.4 -0.8,0.8 0.5,0.4 0.8,-0.8 z m 0,-3.4 -0.5,-0.4 -0.8,0.8 0.5,0.4 0.8,-0.8 z m 0,-3.4 -0.5,-0.4 -0.8,0.8 0.5,0.4 0.8,-0.8 z m 0,-3.3 -0.5,-0.5 -0.8,0.8 0.5,0.4 0.8,-0.7 z m 1.7,11.8 -0.5,-0.4 -0.8,0.7 0.5,0.5 0.8,-0.8 z m 0,-3.4 -0.5,-0.4 -0.8,0.8 0.5,0.4 0.8,-0.8 z m 0,-3.4 -0.5,-0.4 -0.8,0.8 0.5,0.4 0.8,-0.8 z m 0,-3.4 -0.5,-0.4 -0.8,0.8 0.5,0.4 0.8,-0.8 z m 1.7,8.5 -0.5,-0.4 -0.8,0.8 0.5,0.4 0.8,-0.8 z m 0,-3.4 -0.5,-0.4 -0.8,0.8 0.5,0.4 0.8,-0.8 z m 0,-3.4 -0.5,-0.4 -0.8,0.8 0.5,0.4 0.8,-0.8 z m 0,-3.3 -0.5,-0.5 -0.8,0.8 0.5,0.4 0.8,-0.7 z m 1.7,11.8 -0.5,-0.4 -0.8,0.7 0.5,0.5 0.8,-0.8 z m 0,-3.4 -0.5,-0.4 -0.8,0.8 0.5,0.4 0.8,-0.8 z m 0,-3.4 -0.5,-0.4 -0.8,0.8 0.5,0.4 0.8,-0.8 z m 0,-3.4 -0.5,-0.4 -0.8,0.8 0.5,0.4 0.8,-0.8 z m 1.6,8.5 -0.4,-0.4 -0.8,0.8 0.4,0.4 0.8,-0.8 z m 0,-3.4 -0.4,-0.4 -0.8,0.8 0.4,0.4 0.8,-0.8 z m 0,-3.4 -0.4,-0.4 -0.8,0.8 0.4,0.4 0.8,-0.8 z m 0,-3.3 -0.4,-0.5 -0.8,0.8 0.4,0.4 0.8,-0.7 z m 1.7,11.8 -0.4,-0.4 -0.8,0.7 0.4,0.5 0.8,-0.8 z m 0,-3.4 -0.4,-0.4 -0.8,0.8 0.4,0.4 0.8,-0.8 z m 0,-3.4 -0.4,-0.4 -0.8,0.8 0.4,0.4 0.8,-0.8 z m 0,-3.4 -0.4,-0.4 -0.8,0.8 0.4,0.4 0.8,-0.8 z m 1.7,8.5 -0.4,-0.4 -0.8,0.8 0.4,0.4 0.8,-0.8 z m 0,-3.4 -0.4,-0.4 -0.8,0.8 0.4,0.4 0.8,-0.8 z m 0,-3.4 -0.4,-0.4 -0.8,0.8 0.4,0.4 0.8,-0.8 z m 0,-3.3 -0.4,-0.5 -0.8,0.8 0.4,0.4 0.8,-0.7 z M 201,59 q 0,0.9 0.1,1.3 l -10.5,10.5 -0.9,-1.5 11.3,-11.4 0,1.1 z m 3.2,5.9 q 0.9,0.5 1.7,0.8 L 195.6,76 q -0.7,-0.6 -1.4,-1.1 l 10,-10 z M 201.3,61 q 0.3,0.8 0.8,1.7 l -10,10 q -0.3,-0.3 -0.6,-0.6 -0.2,-0.4 -0.5,-0.8 L 201.3,61 Z m 1.2,2.3 q 0.4,0.6 1.2,1.2 l -9.9,9.9 q -0.4,-0.3 -0.7,-0.6 -0.3,-0.3 -0.6,-0.6 l 10,-9.9 z"
       style="font-style:normal;font-variant:normal;font-weight:normal;font-stretch:normal;font-size:100px;line-height:normal;font-family:'Homestead Display';fill:#493a2c"
       id="path3358" />
    <path
       d="m 295.34219,80 8.5,-8.5 0,2.5 -6,6 -2.5,0 z m 3.4,0 5.1,-5.1 0,2.5 -2.6,2.6 -2.5,0 z m -6.8,0 11.9,-11.9 0,2.5 -9.4,9.4 -2.5,0 z m 11.9,-14 0,1.2 -12.8,12.8 -2.5,0 14,-14 1.3,0 z m -1.7,14 1.7,-1.7 0,1.7 -1.7,0 z m -26.3,-10.9 3,-3.1 2.5,0 -5.5,5.6 0,-2.5 z m 22.5,-3.1 -14,14 -2.5,0 14,-14 -0.9,0 -14,14 -2.5,0 14,-14 -0.9,0 -14,14 -1.7,0 0,-0.8 13.2,-13.2 -0.9,0 -12.3,12.3 0,-2.5 9.8,-9.8 -0.9,0 -8.9,8.9 0,-2.5 6.4,-6.4 0.2,0 -2.3,-7.8 -0.8,0.8 -2.5,0 2.7,-2.7 -0.2,-0.7 -3.4,3.4 -2.5,0 5.3,-5.3 -0.2,-0.7 -6,6 -2.5,0 7.9,-7.9 -0.2,-0.7 -8.6,8.6 -2.5,0 10.6,-10.5 -0.2,-0.7 -11.2,11.2 -2.5,0 13.1,-13.1 -0.2,-0.7 -13.8,13.8 -2.5,0 14,-14 2.2,0 -6.3,-21 -0.6,0 -6.7,22.2 1.2,-1.2 2.5,0 -4.8,4.8 -0.3,1.3 6,-6.1 2.5,0 -9.6,9.6 -0.4,1.3 10.9,-10.9 2.5,0 -14,14 -0.3,0 -2.1,7 1.1,0 -0.7,0.6 0.5,0.5 0.8,-0.8 -0.3,-0.3 3,0 -0.6,0.6 0.5,0.5 0.8,-0.8 -0.3,-0.3 1.8,0 0,1.8 -0.3,-0.3 -0.8,0.8 0.5,0.5 0.6,-0.7 0,3.1 -0.3,-0.3 -0.8,0.8 0.5,0.4 0.6,-0.6 0,3.1 -0.3,-0.3 -0.8,0.8 0.5,0.4 0.6,-0.6 0,3 -0.3,-0.2 -0.8,0.8 0.5,0.4 0.6,-0.6 0,1.7 -1.7,0 0.2,-0.2 -0.5,-0.4 -0.6,0.6 -2.5,0 0.2,-0.2 -0.5,-0.4 -0.6,0.6 -2.5,0 0.2,-0.2 -0.4,-0.4 -0.7,0.6 -2.5,0 0.2,-0.2 -0.4,-0.4 -0.7,0.6 -2.5,0 0.2,-0.2 -0.4,-0.4 -0.7,0.6 -2.5,0 0.2,-0.2 -0.4,-0.4 -0.6,0.6 -2.5,0 0.2,-0.2 -0.5,-0.4 -0.6,0.6 -2.5,0 0.2,-0.2 -0.5,-0.4 -0.6,0.6 -1.7,0 0,-1.4 0.3,0.3 0.8,-0.8 -0.5,-0.4 -0.6,0.6 0,-3.1 0.3,0.3 0.8,-0.8 -0.5,-0.4 -0.6,0.6 0,-3.1 0.3,0.3 0.8,-0.8 -0.5,-0.4 -0.6,0.7 0,-3.2 0.3,0.4 0.8,-0.8 -0.5,-0.5 -0.6,0.7 0,-2.2 2.2,0 -0.7,0.6 0.5,0.5 0.8,-0.8 -0.3,-0.3 3,0 -0.6,0.6 0.5,0.5 0.8,-0.8 -0.3,-0.3 0.9,0 16.8,-56 21.4,0 16.8,56 1.3,0 z m -60.3,10.4 -0.5,-0.4 -0.8,0.8 0.5,0.4 0.8,-0.8 z m 0,-3.4 -0.5,-0.4 -0.8,0.8 0.5,0.4 0.8,-0.8 z m 0,-3.3 -0.5,-0.5 -0.8,0.8 0.5,0.4 0.8,-0.7 z m 1.7,8.4 -0.5,-0.4 -0.8,0.8 0.5,0.4 0.8,-0.8 z m 0,-3.4 -0.5,-0.4 -0.8,0.8 0.5,0.4 0.8,-0.8 z m 0,-3.4 -0.5,-0.4 -0.8,0.8 0.5,0.4 0.8,-0.8 z m 0,-3.3 -0.5,-0.5 -0.8,0.8 0.5,0.5 0.8,-0.8 z m 1.7,8.4 -0.5,-0.4 -0.8,0.8 0.5,0.4 0.8,-0.8 z m 0,-3.4 -0.5,-0.4 -0.8,0.8 0.5,0.4 0.8,-0.8 z m 0,-3.3 -0.5,-0.5 -0.8,0.8 0.5,0.4 0.8,-0.7 z m 1.7,8.4 -0.5,-0.4 -0.8,0.8 0.5,0.4 0.8,-0.8 z m 0,-3.4 -0.5,-0.4 -0.8,0.8 0.5,0.4 0.8,-0.8 z m 0,-3.4 -0.5,-0.4 -0.8,0.8 0.5,0.4 0.8,-0.8 z m 0,-3.3 -0.5,-0.5 -0.8,0.8 0.5,0.5 0.8,-0.8 z m 1.6,8.4 -0.4,-0.4 -0.8,0.8 0.5,0.4 0.7,-0.8 z m 0,-3.4 -0.4,-0.4 -0.8,0.8 0.5,0.4 0.7,-0.8 z m 0,-3.3 -0.4,-0.5 -0.8,0.8 0.5,0.4 0.7,-0.7 z m 0,-3.4 -0.2,-0.3 -0.4,0 -0.6,0.6 0.5,0.5 0.7,-0.8 z m 1.7,11.8 -0.4,-0.4 -0.8,0.8 0.4,0.4 0.8,-0.8 z m 0,-3.4 -0.4,-0.4 -0.8,0.8 0.4,0.4 0.8,-0.8 z m 0,-3.4 -0.4,-0.4 -0.8,0.8 0.4,0.4 0.8,-0.8 z m 0,-3.3 -0.4,-0.5 -0.8,0.8 0.4,0.5 0.8,-0.8 z m 1.7,8.4 -0.4,-0.4 -0.8,0.8 0.4,0.4 0.8,-0.8 z m 0,-3.4 -0.4,-0.4 -0.8,0.8 0.4,0.4 0.8,-0.8 z m 0,-3.3 -0.4,-0.5 -0.8,0.8 0.4,0.4 0.8,-0.7 z m 0,-3.4 -0.2,-0.3 -0.4,0 -0.6,0.6 0.4,0.5 0.8,-0.8 z m 12.3,3.7 0.5,0.4 0.8,-0.7 -0.5,-0.5 -0.8,0.8 z m 0,3.4 0.5,0.4 0.8,-0.8 -0.5,-0.4 -0.8,0.8 z m 0,3.4 0.5,0.4 0.8,-0.8 -0.5,-0.4 -0.8,0.8 z m -1.7,-8.5 0.5,0.5 0.8,-0.8 -0.5,-0.5 -0.8,0.8 z m 0,3.4 0.5,0.4 0.8,-0.8 -0.5,-0.4 -0.8,0.8 z m 0,3.4 0.5,0.4 0.8,-0.8 -0.5,-0.4 -0.8,0.8 z m 0,3.4 0.5,0.4 0.8,-0.8 -0.5,-0.4 -0.8,0.8 z m -8.9,-0.4 -0.4,-0.4 -0.8,0.8 0.4,0.4 0.8,-0.8 z m 0,-3.4 -0.4,-0.4 -0.8,0.8 0.4,0.4 0.8,-0.8 z m 0,-3.4 -0.4,-0.4 -0.8,0.8 0.4,0.4 0.8,-0.8 z m 0,-3.3 -0.4,-0.5 -0.8,0.8 0.4,0.5 0.8,-0.8 z m 1.7,8.4 -0.4,-0.4 -0.8,0.8 0.4,0.4 0.8,-0.8 z m 0,-3.4 -0.4,-0.4 -0.8,0.8 0.4,0.4 0.8,-0.8 z m 0,-3.3 -0.4,-0.5 -0.8,0.8 0.4,0.4 0.8,-0.7 z m 0,-3.4 -0.2,-0.3 -0.4,0 -0.6,0.6 0.4,0.5 0.8,-0.8 z m 1.7,11.8 -0.4,-0.4 -0.8,0.8 0.4,0.4 0.8,-0.8 z m 0,-3.4 -0.4,-0.4 -0.8,0.8 0.4,0.4 0.8,-0.8 z m 0,-3.4 -0.4,-0.4 -0.8,0.8 0.4,0.4 0.8,-0.8 z m 0,-3.3 -0.4,-0.5 -0.8,0.8 0.4,0.5 0.8,-0.8 z m 1.7,8.4 -0.4,-0.4 -0.8,0.8 0.4,0.4 0.8,-0.8 z m 0,-3.4 -0.4,-0.4 -0.8,0.8 0.4,0.4 0.8,-0.8 z m 0,-3.3 -0.4,-0.5 -0.8,0.8 0.4,0.4 0.8,-0.7 z m 0,-3.4 -0.3,-0.3 -0.3,0 -0.6,0.6 0.4,0.5 0.8,-0.8 z m 1.7,11.8 -0.5,-0.4 -0.7,0.8 0.4,0.4 0.8,-0.8 z m 0,-3.4 -0.5,-0.4 -0.7,0.8 0.4,0.4 0.8,-0.8 z m 0,-3.4 -0.5,-0.4 -0.7,0.8 0.4,0.4 0.8,-0.8 z m 0.4,-1.3 0.5,0.4 0.8,-0.7 -0.5,-0.5 -0.8,0.8 z m 0,3.4 0.5,0.4 0.8,-0.8 -0.5,-0.4 -0.8,0.8 z m 0,3.4 0.5,0.4 0.8,-0.8 -0.5,-0.4 -0.8,0.8 z m -0.9,-9.3 -0.7,0.8 0.4,0.5 0.8,-0.8 -0.5,-0.5 z m 19.7,-1.5 2.2,0 -2.2,2.2 0,-2.2 z m 25.8,0 -14,14 -2.4,0 14,-14 2.4,0 z"
       style="font-style:normal;font-variant:normal;font-weight:normal;font-stretch:normal;font-size:100px;line-height:normal;font-family:'Homestead Display';fill:#493a2c"
       id="path3360" />
    <path
       d="m 327.24687,64.9 q 0.5,0.2 0.8,0.4 0.4,0.2 0.9,0.4 L 318.64688,76 q -0.30001,-0.3 -0.70001,-0.5 -0.29999,-0.3 -0.6,-0.6 l 9.9,-10 z m 7.1,-40.9 13.80001,-13.8 q 0.5,0.1 1,0.2 0.5,0.1 1,0.2 l -13.30001,13.4 -2.5,0 z m 14.7,1.3 q -0.39999,-0.3 -0.8,-0.5 -0.3,-0.2 -0.8,-0.4 l 10.20001,-10.2 q 0.39999,0.3 0.69999,0.6 0.30001,0.3 0.7,0.6 l -10,9.9 z m 1.7,1.7 q -0.4,-0.7 -1.2,-1.3 l 9.9,-9.9 q 0.4,0.3 0.70001,0.6 0.29999,0.3 0.59999,0.6 l -10,10 z m 1.1,2.3 q -0.19999,-0.5 -0.4,-0.9 -0.1,-0.4 -0.29999,-0.9 l 10,-10 q 0.29999,0.4 0.5,0.7 0.29999,0.3 0.59999,0.7 l -10.4,10.4 z m 14.1,0.3 q 0.1,0.4 0.1,1.4 l 0,3.5 -14,0 0,-3.5 q 0,-0.6 -0.1,-0.9 l 10.6,-10.6 q 0.3,0.4 0.5,0.8 0.3,0.3 0.5,0.7 l -10,10 0.9,0 9.4,-9.4 q 0.2,0.5 0.30001,0.9 0.19999,0.3 0.39999,0.8 l -7.6,7.7 0.8,0 7.1,-7 q 0.2,0.5 0.30001,1 0.1,0.4 0.29999,0.9 l -5.2,5.1 0.90001,0 4.39999,-4.4 q 0.2,0.8 0.4,2.2 l -2.29999,2.2 0.89999,0 1.4,-1.4 z m -21.5,-5.6 11.20001,-11.1 q 0.39999,0.2 0.69999,0.5 0.4,0.2 0.80001,0.5 l -10.40001,10.3 q -1,-0.2 -1.7,-0.2 l -0.6,0 z m -6.7,0 13.1,-13.2 q 1.2,0.3 1.9,0.7 l -12.5,12.5 -2.5,0 z m 3.40001,0 12.19999,-12.3 q 0.5,0.2 0.9,0.4 0.40001,0.2 0.8,0.4 l -11.5,11.5 -2.39999,0 z m -17.10001,35 q 0,0.9 0.10001,1.3 l -10.5,10.5 -0.90001,-1.5 10.3,-10.3 -0.89999,0 -9.70001,9.7 q -0.5,-0.9 -0.79999,-1.7 l 8,-8 -0.90001,0 -7.4,7.4 q -0.19999,-0.5 -0.3,-0.9 -0.1,-0.5 -0.3,-1 l 5.5,-5.5 -0.9,0 -4.8,4.8 -0.3,-2.1 2.6,-2.7 -0.9,0 -1.79999,1.9 q -0.10001,-0.5 -0.10001,-0.9 0,-0.5 0,-1 l 0,-28 q 0,-4.3 1.60001,-8.1 1.69999,-3.9 4.5,-6.7 2.89999,-2.9 6.69999,-4.5 3.80001,-1.7 8.2,-1.7 l 0,0.4 0.4,-0.4 2.5,0 -2.9,2.9 0,0.9 3.7,-3.8 2.5,0 -6.2,6.3 0,0.8 7.10001,-7.1 2.5,0 -9.60001,9.6 0,0.9 10.5,-10.5 2.5,0 -13,13 0,0.9 13.9,-13.9 0.1,0 q 0.60001,0 1.10001,0 0.59999,0 1.19999,0.1 l -13.9,13.9 -2.4,0 q -2.89999,0 -5,2.1 -2,2 -2,4.9 l 0,28 z m 0.3,2.1 q 0.2,0.5 0.4,0.9 0.2,0.3 0.40001,0.8 l -10,9.9 q -0.30001,-0.3 -0.60001,-0.6 -0.2,-0.4 -0.5,-0.8 l 10.3,-10.2 z m 1.2,2.2 q 0.2,0.3 0.5,0.7 0.3,0.3 0.7,0.5 l -9.9,10 -1.3,-1.3 10,-9.9 z m 26.5,-5.5 11.4,11.3 q -0.2,0.3 -0.4,0.6 -0.1,0.3 -0.3,0.6 l -10.7,-10.8 0,-0.5 0,-1.2 z m 11.3,-2.3 2.7,2.7 0,0.8 0,1 -4.5,-4.5 1.8,0 z m -3.4,0 5.9,6 q 0,0.5 -0.19999,1.5 l -7.5,-7.5 1.79999,0 z m -3.4,0 8.8,8.8 q -0.19999,0.8 -0.4,1.4 l -10.2,-10.2 1.8,0 z m 8.4,0 1.1,0 0,1.1 -1.1,-1.1 z m -17.2,9.9 q 0.6,-0.1 1.2,-0.6 l 10,10 q -0.4,0.2 -1,0.8 l -10.2,-10.2 z m 2.1,-1.3 q 0.6,-0.6 0.80001,-0.9 l 10,9.9 -0.90001,0.9 -9.9,-9.9 z m -4.8,1.9 q 0.5,0 1.5,-0.2 l 10.5,10.5 q -0.8,0.4 -1.1,0.7 l -10.9,-10.9 0,0.4 -0.6,0.6 0.5,0.5 0.1,-0.2 0,0.3 9.9,9.8 -1.2,0.6 -8.7,-8.6 0,0.4 -0.6,0.6 0.5,0.4 0.1,-0.1 0,0.3 7.5,7.5 q -0.3,0.2 -0.6,0.3 -0.29999,0 -0.7,0.2 l -6.2,-6.2 0,0.4 -0.6,0.6 0.5,0.4 0.1,-0.1 0,0.2 5,5 -1.5,0.3 -3.5,-3.5 0,0.5 -0.6,0.6 0.5,0.4 0.1,-0.1 0,0.2 2.10001,2.1 q -0.5,0.1 -0.90001,0.1 -0.4,0 -0.8,0 l -0.4,-0.4 0,0.4 -3,0 -0.2,-0.1 -0.1,0.1 -3.09999,0 -0.10001,-0.1 -0.2,0.1 -3.1,0 -0.1,-0.1 -0.20001,0.1 -3.1,0 -0.1,-0.1 -0.2,0.1 -0.5,0 q -0.5,0 -1,0 -0.39999,0 -0.89999,-0.1 l 1.89999,-1.8 0,-0.7 0.3,0.3 0.80001,-0.8 -0.40001,-0.4 -3.4,3.3 q -0.5,-0.1 -1.1,-0.1 -0.5,-0.1 -1,-0.3 l 4.8,-4.7 0,-0.7 0.3,0.3 0.80001,-0.8 -0.40001,-0.4 -6.2,6.2 q -0.5,-0.2 -1,-0.3 -0.39999,-0.1 -0.89999,-0.3 l 7.39999,-7.4 0,-0.7 0.3,0.3 0.80001,-0.8 -0.40001,-0.4 -8.7,8.7 q -0.8,-0.3 -1.7,-0.8 l 9.7,-9.7 0,-0.7 0.3,0.4 0.80001,-0.8 -0.40001,-0.5 -11,11 q -0.4,-0.2 -0.8,-0.4 -0.29999,-0.3 -0.7,-0.6 l 10.40001,-10.4 q 0.5,0.1 1.39999,0.1 l 14,0 z m -10.7,1.1 0.4,0.5 0.8,-0.8 -0.39999,-0.5 -0.80001,0.8 z m -1.69999,1.7 0.39999,0.4 0.8,-0.7 -0.4,-0.5 -0.79999,0.8 z m 1.19999,9.8 -0.4,-0.4 -0.79999,0.8 0.39999,0.4 0.8,-0.8 z m 0,-3.4 -0.4,-0.4 -0.79999,0.8 0.39999,0.4 0.8,-0.8 z m 0,-3.4 -0.4,-0.4 -0.79999,0.8 0.39999,0.4 0.8,-0.8 z m 1.7,5.1 -0.39999,-0.4 -0.80001,0.8 0.4,0.4 0.8,-0.8 z m 0,-3.4 -0.39999,-0.4 -0.80001,0.8 0.4,0.4 0.8,-0.8 z m 0,-3.4 -0.39999,-0.4 -0.80001,0.8 0.4,0.4 0.8,-0.8 z m 1.7,8.5 -0.4,-0.4 -0.8,0.8 0.4,0.4 0.8,-0.8 z m 0,-3.4 -0.4,-0.4 -0.8,0.8 0.4,0.4 0.8,-0.8 z m 0,-3.4 -0.4,-0.4 -0.8,0.8 0.4,0.4 0.8,-0.8 z m 0,-3.3 -0.4,-0.5 -0.8,0.8 0.4,0.4 0.8,-0.7 z m 1.7,8.4 -0.4,-0.4 -0.8,0.8 0.40001,0.4 0.79999,-0.8 z m 0,-3.4 -0.4,-0.4 -0.8,0.8 0.40001,0.4 0.79999,-0.8 z m 0,-3.4 -0.4,-0.4 -0.8,0.8 0.40001,0.4 0.79999,-0.8 z m 0,-3.3 -0.4,-0.5 -0.8,0.8 0.40001,0.5 0.79999,-0.8 z m 1.70001,11.8 -0.5,-0.4 -0.70001,0.8 0.4,0.4 0.80001,-0.8 z m 0,-3.4 -0.5,-0.4 -0.70001,0.8 0.4,0.4 0.80001,-0.8 z m 0,-3.4 -0.5,-0.4 -0.70001,0.8 0.4,0.4 0.80001,-0.8 z m 0,-3.3 -0.5,-0.5 -0.70001,0.8 0.4,0.4 0.80001,-0.7 z m 1.69999,8.4 -0.5,-0.4 -0.8,0.8 0.5,0.4 0.8,-0.8 z m 0,-3.4 -0.5,-0.4 -0.8,0.8 0.5,0.4 0.8,-0.8 z m 0,-3.4 -0.5,-0.4 -0.8,0.8 0.5,0.4 0.8,-0.8 z m 0,-3.3 -0.5,-0.5 -0.8,0.8 0.5,0.5 0.8,-0.8 z m 1.7,11.8 -0.5,-0.4 -0.8,0.8 0.5,0.4 0.8,-0.8 z m 0,-3.4 -0.5,-0.4 -0.8,0.8 0.5,0.4 0.8,-0.8 z m 0,-3.4 -0.5,-0.4 -0.8,0.8 0.5,0.4 0.8,-0.8 z m 0,-3.3 -0.5,-0.5 -0.8,0.8 0.5,0.4 0.8,-0.7 z m 9.10001,-13 11.39999,11.3 q -0.2,0.5 -0.6,1.3 l -11.9,-11.9 0,-0.7 1.10001,0 z m -1.90001,6.7 q 0.3,-0.7 0.5,-1.3 l 10.40001,10.3 q -0.20001,0.3 -0.40001,0.6 -0.2,0.2 -0.4,0.4 l -10.1,-10 z"
       style="font-style:normal;font-variant:normal;font-weight:normal;font-stretch:normal;font-size:100px;line-height:normal;font-family:'Homestead Display';fill:#493a2c"
       id="path3362" />
    <path
       d="m 435.27031,10 0,14 -5,0 -37.7,36.6 0,0.6 -4.8,4.8 0.8,0 4,-4 0,2.5 -1.5,1.5 0.9,0 0.6,-0.6 0,0.6 7,0 0,14 -28,0 0,-14 7,0 0,-0.1 14,-14 0,-0.9 -14,14 0,-2.5 14,-14 0,-0.9 -14,14 0,-2.5 14,-14 0,-0.9 -14,14 0,-2.5 14,-14 0,-0.6 17.6,-17.1 -3.6,0 0,-14 28.7,0 z m -42.7,47.8 -8.2,8.2 0.9,0 7.3,-7.3 0,-0.9 z m 0,-3.4 -11.6,11.6 0.9,0 10.7,-10.7 0,-0.9 z m 36.4,12 6.3,6.3 0,1.8 -3.7,-3.7 0.8,1.3 -0.6,0.6 0.5,0.4 0.4,-0.4 0.9,1.6 -0.1,0.1 1.8,1.7 0,3.3 -0.1,0 0.1,0.1 0,0.5 -14.8,0 -13.2,-13.2 0,-0.8 1,0 10.5,10.5 0.7,-0.8 -0.4,-0.4 -0.7,0.7 -1,-1.6 0.5,-0.4 -0.5,-0.4 -0.3,0.3 -0.9,-1.5 -6.4,-6.4 1.8,0 2.1,2 0.8,-0.8 -0.5,-0.4 -0.7,0.7 -0.9,-1.6 10.2,-10.2 0.9,1.6 -8.7,8.7 0.2,0 0.4,0.3 8.5,-8.4 0.9,1.5 -6.6,6.6 0.2,0 0.4,0.3 6.3,-6.3 1,1.5 -4.5,4.5 0.2,0 0.3,0.3 4.3,-4.2 0.9,1.6 -2.3,2.3 0.2,0 0.3,0.3 2.2,-2.1 0.9,1.6 -0.2,0.2 0.2,0 0.3,0.3 0.1,0.1 z m -12.8,2.5 -0.5,-0.4 -0.8,0.8 0.5,0.4 0.8,-0.8 z m 1.7,1.7 -0.5,-0.4 -0.8,0.8 0.5,0.4 0.8,-0.8 z m 0,-3.4 -0.5,-0.4 -0.8,0.8 0.5,0.4 0.8,-0.8 z m 1.6,5.1 -0.4,-0.4 -0.8,0.8 0.5,0.4 0.7,-0.8 z m 0,-3.4 -0.4,-0.4 -0.8,0.8 0.5,0.4 0.7,-0.8 z m 1.7,8.5 -0.4,-0.4 -0.8,0.7 0.4,0.5 0.8,-0.8 z m 0,-3.4 -0.4,-0.4 -0.8,0.8 0.4,0.4 0.8,-0.8 z m 0,-3.4 -0.4,-0.4 -0.8,0.8 0.4,0.4 0.8,-0.8 z m 0,-3.4 -0.4,-0.4 -0.8,0.8 0.4,0.4 0.8,-0.8 z m 1.7,11.9 -0.4,-0.5 -0.8,0.8 0.4,0.5 0.8,-0.8 z m 0,-3.4 -0.4,-0.4 -0.8,0.8 0.4,0.4 0.8,-0.8 z m 0,-3.4 -0.4,-0.4 -0.8,0.8 0.4,0.4 0.8,-0.8 z m 0,-3.4 -0.4,-0.4 -0.8,0.8 0.4,0.4 0.8,-0.8 z m 1.7,8.5 -0.4,-0.4 -0.8,0.7 0.4,0.5 0.8,-0.8 z m 0,-3.4 -0.4,-0.4 -0.8,0.8 0.4,0.4 0.8,-0.8 z m 0,-3.4 -0.4,-0.4 -0.8,0.8 0.4,0.4 0.8,-0.8 z m 0,-3.4 -0.4,-0.4 -0.8,0.8 0.4,0.4 0.8,-0.8 z m 2.2,0.4 0.4,0.4 0.8,-0.8 -0.4,-0.4 -0.8,0.8 z m -0.5,11.5 -0.4,-0.5 -0.8,0.8 0.4,0.5 0.8,-0.8 z m 0,-3.4 -0.4,-0.4 -0.8,0.8 0.4,0.4 0.8,-0.8 z m 0,-3.4 -0.4,-0.4 -0.8,0.8 0.4,0.4 0.8,-0.8 z m 0,-3.4 -0.4,-0.4 -0.8,0.8 0.4,0.4 0.8,-0.8 z m 1.7,8.5 -0.4,-0.4 -0.8,0.7 0.4,0.5 0.8,-0.8 z m 0,-3.4 -0.4,-0.4 -0.8,0.8 0.4,0.4 0.8,-0.8 z m 0,-3.4 -0.4,-0.4 -0.8,0.8 0.4,0.4 0.8,-0.8 z m 5.5,7.1 0.5,0.5 0.8,-0.8 -0.5,-0.4 -0.8,0.7 z m -1.7,-1.6 0.5,0.4 0.8,-0.8 -0.5,-0.4 -0.8,0.8 z m 0,3.3 0.5,0.5 0.8,-0.8 -0.5,-0.5 -0.8,0.8 z m -2.1,-0.3 -0.4,-0.5 -0.8,0.8 0.4,0.5 0.8,-0.8 z m 0,-3.4 -0.4,-0.4 -0.8,0.8 0.4,0.4 0.8,-0.8 z m 0,-3.4 -0.4,-0.4 -0.8,0.8 0.4,0.4 0.8,-0.8 z m 0.5,-1.3 0.4,0.4 0.8,-0.8 -0.5,-0.4 -0.7,0.8 z m 0,3.4 0.4,0.4 0.8,-0.8 -0.5,-0.4 -0.7,0.8 z m 0,3.3 0.4,0.5 0.8,-0.8 -0.5,-0.4 -0.7,0.7 z m -0.9,-9.2 -0.8,0.8 0.4,0.4 0.8,-0.8 -0.4,-0.4 z m -50.7,-16.1 14,-14 0,2.5 -14,14 0,-2.5 z m 14,-25.1 -14,14 0,-2.5 14,-14 0,2.5 z m 0,10.2 -14,14 0,-2.5 14,-14 0,2.5 z m 0,-6.8 -14,14 0,-2.5 14,-14 0,2.5 z m 0,3.4 -14,14 0,-2.5 14,-14 0,2.5 z m 24.9,13.2 1,1.5 -10.2,10.2 -1,-1.5 10.2,-10.2 z m -2.8,-4.8 -10.2,10.2 -1,-1.7 10.3,-10.1 0.9,1.6 z m 1.3,2.1 -10.3,10.2 -0.9,-1.6 10.2,-10.2 1,1.6 z m 4.1,6.9 0.9,1.6 -10.2,10.2 -0.9,-1.6 10.2,-10.2 z m -2.9,-4.8 -10.2,10.2 -0.9,-1.6 10.2,-10.2 0.9,1.6 z m 1.6,2.7 0.9,1.5 -10.2,10.2 -0.9,-1.5 10.2,-10.2 z m -6.7,16 -1,-1.6 10.2,-10.2 1,1.6 -10.2,10.2 z m -13.2,-54.1 -1.3,-1.3 1.3,0 0,1.3 z m 34.6,54.7 1.8,0 0,1.8 -1.8,-1.8 z m -34.6,-51.3 -4.7,-4.7 1.8,0 2.9,2.9 0,1.8 z m -26.1,9.3 -1.2,0 0,-1.2 1.2,1.2 z m 34.5,51.2 4.8,4.8 -1.8,0 -3,-3 0,-1.8 z m 24.6,-9.2 3.4,3.4 0,1.8 -5.2,-5.2 1.8,0 z m -24.6,2.4 11.6,11.6 -1.8,0 -9.8,-9.8 0,-1.8 z m 0,3.4 8.2,8.2 -1.8,0 -6.4,-6.4 0,-1.8 z m 0,6.8 1.4,1.4 -1.4,0 0,-1.4 z m -29.6,-54.6 -6.1,-6.1 0,-1.8 7,7 0,-1.2 0.2,-0.2 -7.2,-7.2 0,-1.8 7,7 0,-1.2 0.2,-0.2 -7.2,-7.2 0,-1.1 0.7,0 6.3,6.3 0,-1.2 0.2,-0.2 -4.9,-4.9 1.8,0 2.9,2.9 0,-1.1 0.2,-0.3 -1.5,-1.5 2.2,0 -0.2,0.2 0.4,0.4 0.7,-0.6 2.5,0 -0.3,0.2 0.5,0.4 0.6,-0.6 2.5,0 -0.2,0.2 0.5,0.4 0.6,-0.6 2.5,0 -0.2,0.2 0.5,0.4 0.6,-0.6 2.1,0 0,0 6.3,6.3 0,1.8 -6.3,-6.3 0,1.6 6.3,6.3 0,1.8 -6.3,-6.3 0,1.6 6.3,6.3 0,0.9 -0.9,0 -5.4,-5.4 0,1.6 3.8,3.8 -1.8,0 -2,-2 0,1.5 0.5,0.5 -0.6,0 -13.9,13.9 0,-2.5 12.1,-12 -0.5,-0.5 -0.8,0.8 0.3,0.3 -0.5,0 -10.6,10.6 0,-2.5 8.7,-8.7 -0.5,-0.5 -0.8,0.8 0.3,0.3 -0.5,0 -7.2,7.2 0,-2.5 5.3,-5.3 -0.5,-0.5 -0.8,0.8 0.3,0.3 -0.5,0 -3.8,3.8 0,-2.5 1.9,-1.9 -0.4,-0.5 -0.8,0.8 0.2,0.3 -0.5,0 -0.4,0.4 0,-0.4 -0.9,0 z m 13.4,-12.1 0.5,0.4 0.7,-0.8 -0.4,-0.4 -0.8,0.8 z m 0,3.4 0.5,0.4 0.7,-0.8 -0.4,-0.4 -0.8,0.8 z m 0,3.4 0.5,0.4 0.7,-0.8 -0.4,-0.4 -0.8,0.8 z m 0,3.3 0.5,0.5 0.7,-0.8 -0.4,-0.4 -0.8,0.7 z m -1.7,-8.4 0.5,0.4 0.8,-0.8 -0.5,-0.4 -0.8,0.8 z m 0,3.4 0.5,0.4 0.8,-0.8 -0.5,-0.4 -0.8,0.8 z m 0,3.4 0.5,0.4 0.8,-0.8 -0.5,-0.4 -0.8,0.8 z m -1.7,-8.5 0.5,0.4 0.8,-0.8 -0.5,-0.4 -0.8,0.8 z m 0,3.4 0.5,0.4 0.8,-0.8 -0.5,-0.4 -0.8,0.8 z m 0,3.4 0.5,0.4 0.8,-0.8 -0.5,-0.4 -0.8,0.8 z m 0,3.3 0.5,0.5 0.8,-0.8 -0.5,-0.4 -0.8,0.7 z m -1.7,-8.4 0.5,0.4 0.8,-0.8 -0.5,-0.4 -0.8,0.8 z m 0,3.4 0.5,0.4 0.8,-0.8 -0.5,-0.4 -0.8,0.8 z m 0,3.4 0.5,0.4 0.8,-0.8 -0.5,-0.4 -0.8,0.8 z m -1.7,-8.5 0.5,0.4 0.8,-0.8 -0.5,-0.4 -0.8,0.8 z m 0,3.4 0.5,0.4 0.8,-0.8 -0.5,-0.4 -0.8,0.8 z m 0,3.4 0.5,0.4 0.8,-0.8 -0.5,-0.4 -0.8,0.8 z m 0,3.3 0.5,0.5 0.8,-0.8 -0.5,-0.4 -0.8,0.7 z m -1.7,-8.4 0.5,0.4 0.8,-0.8 -0.5,-0.4 -0.8,0.8 z m 0,3.4 0.5,0.4 0.8,-0.8 -0.5,-0.4 -0.8,0.8 z m 0,3.4 0.5,0.4 0.8,-0.8 -0.5,-0.4 -0.8,0.8 z m -1.6,-8.5 0.4,0.4 0.8,-0.8 -0.4,-0.4 -0.8,0.8 z m 0,3.4 0.4,0.4 0.8,-0.8 -0.4,-0.4 -0.8,0.8 z m 0,3.4 0.4,0.4 0.8,-0.8 -0.4,-0.4 -0.8,0.8 z m 0,3.3 0.4,0.5 0.8,-0.8 -0.4,-0.4 -0.8,0.7 z m -1.7,-8.4 0.4,0.4 0.8,-0.8 -0.4,-0.4 -0.8,0.8 z m 0,3.4 0.4,0.4 0.8,-0.8 -0.4,-0.4 -0.8,0.8 z m 0,3.4 0.4,0.4 0.8,-0.8 -0.4,-0.4 -0.8,0.8 z m -5,3.6 -2.7,-2.7 0,-1.8 4.5,4.5 -1.8,0 z"
       style="font-style:normal;font-variant:normal;font-weight:normal;font-stretch:normal;font-size:100px;line-height:normal;font-family:'Homestead Display';fill:#493a2c"
       id="path3364" />
  </g>
  <g
     style="font-style:normal;font-variant:normal;font-weight:normal;font-stretch:normal;font-size:100px;line-height:normal;font-family:'Homestead Display';fill:#493a2c"
     id="text8">
    <path
       d="m 7,146.6 14,14 0,1.8 -14,-14 0,-1.8 z m 0,3.4 14,14 0,1.8 -14,-14 0,-1.8 z m 30.3,15.7 q 0.3,-0.2 0.6,-0.3 0.4,-0.1 0.7,-0.3 l 10,10.1 q -0.6,0.4 -1,0.8 L 37.3,165.7 Z M 7,143.2 l 14,14 0,1.8 -14,-14 0,-1.8 z M 35,166 q 0.7,0 1,-0.1 l 10.7,10.7 q -0.3,0.2 -0.6,0.4 -0.3,0.1 -0.6,0.3 L 35,166.7 l 0,1.6 9.5,9.5 q -0.8,0.4 -1.3,0.6 l -8.2,-8.3 0,1.6 7.1,7.1 q -0.6,0.2 -1.4,0.4 l -5.7,-5.7 0,1.6 4.4,4.4 -1.5,0.3 -2.9,-2.9 0,1.6 1.5,1.4 Q 36,180 35,180 l -35,0 0,-14 7.7,0 -0.7,-0.7 0,-1.8 2.5,2.5 1.5,0 -4,-4 0,-1.8 5.8,5.8 1.6,0 -7.4,-7.4 0,-1.8 9.2,9.2 1.6,0 L 7,155.2 7,153.4 19.6,166 35,166 Z m -14,-10.4 -14,-14 0,-1.7 14,14 0,1.7 z m 21.6,1.9 q -0.2,-1.5 -0.7,-2.6 l 12.7,12.7 -0.6,1.2 -11.4,-11.3 z m -3.1,7 q 0.4,-0.2 1,-0.8 l 9.9,9.9 q -0.6,0.6 -0.9,0.8 l -10,-9.9 z m 3.2,-5.4 10.7,10.7 q -0.2,0.3 -0.4,0.6 -0.1,0.2 -0.3,0.5 l -10.3,-10.3 0.3,-1.5 z m -1.5,3.7 q 0.3,-0.3 0.7,-1.1 L 52,171.8 q -0.6,0.6 -0.8,1 l -10,-10 z M 30.3,124 42.8,111.6 q 0.4,0.2 0.8,0.4 0.4,0.2 0.9,0.4 l -11.7,11.6 -2.5,0 z m 3.4,0 11.3,-11.3 q 0.5,0.2 0.8,0.5 0.4,0.2 0.8,0.4 L 36.1,124.1 Q 35.7,124 35,124 l -1.3,0 z m 4.8,1.1 q -0.4,-0.3 -0.8,-0.4 -0.4,-0.2 -0.9,-0.4 L 47.1,114 q 0.3,0.3 0.6,0.6 0.4,0.2 0.8,0.5 l -10,10 z m 1.7,1.7 q -0.5,-0.9 -1.2,-1.3 l 9.9,-10 q 0.3,0.4 0.6,0.7 0.4,0.3 0.6,0.6 l -9.9,10 z m 1,2.4 q -0.1,-0.5 -0.3,-0.9 -0.2,-0.5 -0.4,-1 l 10.1,-10 q 0.2,0.3 0.5,0.7 0.3,0.3 0.5,0.7 l -10.4,10.5 z m 0.1,0.7 10.7,-10.7 q 0.2,0.4 0.4,0.8 0.3,0.4 0.5,0.8 l -12.3,12.3 q 0.7,-1.3 0.7,-2.8 l 0,-0.4 z m 3.8,18 11.6,11.6 q -0.1,0.5 -0.1,0.9 0,0.3 -0.1,0.8 L 43.9,148.5 q -0.3,0.2 -0.6,0.3 -0.2,0.1 -0.5,0.2 l 13.5,13.5 q -0.2,1 -0.4,1.5 l -14.6,-14.7 -0.4,0.4 q -0.2,0.1 -0.3,0.1 -0.1,0 -0.3,0.1 l 15.3,15.3 q -0.2,0.3 -0.3,0.7 0,0.3 -0.2,0.6 L 38.8,150.2 q -0.3,0.1 -0.6,0.2 -0.2,0 -0.5,0 l 0.7,-0.6 -0.5,-0.5 -0.8,0.8 1.3,1.3 q -1.4,-0.7 -2.6,-0.7 l 0,-0.1 -0.8,0 -14,0 0,1.7 -14,-14 0,-1.8 14,14 0,-1.6 -14,-14 0,-1.8 14,14 0,-1.6 -14,-14 0,-1.8 14,14 0,-1.6 -14,-14 0,-1.8 14,14 0,-1.6 -14,-14 0,-0.7 -0.4,0 0.4,-0.4 0,-0.7 0.3,0.4 0.8,-0.8 -0.4,-0.5 -2,2 -2.5,0 3.8,-3.8 0,-0.7 0.3,0.4 0.8,-0.8 -0.4,-0.4 -5.4,5.3 -2.3,0 0,-0.1 7,-7 0,-0.7 0.3,0.3 0.8,-0.8 -0.4,-0.4 -7.7,7.7 0,-2.5 7,-7 0,-0.7 0.3,0.3 0.8,-0.8 -0.4,-0.4 -7.7,7.7 0,-2.5 7,-7 0,-0.1 16.1,0 -2.7,2.7 0.5,0.4 3.1,-3.1 2.5,0 -6.1,6.1 0.5,0.4 6.5,-6.5 2.5,0 -9.5,9.5 0.5,0.4 9.9,-9.9 2.5,0 -12.9,12.8 0.5,0.5 13.3,-13.3 0.8,0 q 0.4,0 0.8,0 0.4,0 0.8,0.1 l -14,13.9 -1.6,0 0,1.2 -1.5,-1.5 -0.2,0.3 -1.1,0 2.8,2.8 0,1.8 -4.8,-4.9 -0.3,0.3 -1.1,0 6.2,6.2 0,1.8 -8.2,-8.3 -0.3,0.3 -1,0 9.5,9.5 0,1.8 -11.6,-11.6 -0.3,0.3 -1,0 12.9,12.9 0,-0.3 14,0 q 1.4,0 2.8,-0.6 l -0.8,0.7 0.2,0 0.4,0.3 15.6,-15.6 q 0.2,0.5 0.4,0.9 0.2,0.3 0.4,0.8 l -14.1,14.1 q 0.3,0 0.7,0.2 l 13.6,-13.6 q 0.2,0.5 0.3,1 0.1,0.4 0.3,0.9 l -12.6,12.6 0.4,0.4 12.3,-12.2 q 0.3,1.1 0.3,2.2 l -10.3,10.3 0.6,0.3 9.8,-9.8 0,0.8 q 0,0.5 0,0.9 0,0.4 -0.1,0.8 l -8.2,8.3 q 0.4,0.2 0.5,0.3 l 7.6,-7.6 q -0.1,0.8 -0.3,1.6 -0.2,0.8 -0.4,1.6 l -5.5,5.5 q 0.1,0.1 0.1,0.1 0.1,0 0.2,0.1 l 0.2,0.2 4.5,-4.5 q -1.2,3.2 -3.3,5.7 l 0.8,0.8 q 1,1.1 1.8,2.4 0.8,1.3 1.5,2.7 l -5,-5 q -0.3,0.5 -0.8,0.8 l 6.8,6.8 0.6,2.4 -8.3,-8.3 q -0.2,0.2 -0.5,0.4 -0.2,0.1 -0.4,0.3 l 9.5,9.5 q 0,0.5 0,1 0.1,0.4 0.1,0.9 L 46,147.3 l -0.9,0.6 z m 2.2,-4.5 0.4,0.4 0.8,-0.8 -0.4,-0.4 -0.8,0.8 z m -1.7,-1.7 0.4,0.4 0.8,-0.8 -0.4,-0.4 -0.8,0.8 z m 0,3.4 0.4,0.4 0.8,-0.8 -0.4,-0.4 -0.8,0.8 z M 18.7,111 l 0.5,0.4 0.8,-0.8 -0.5,-0.4 -0.8,0.8 z m 0,3.4 0.5,0.4 0.8,-0.8 -0.5,-0.4 -0.8,0.8 z m 0,3.4 0.5,0.4 0.8,-0.8 -0.5,-0.4 -0.8,0.8 z m 0,3.3 0.5,0.5 0.8,-0.8 -0.5,-0.4 -0.8,0.7 z m -1.6,-8.4 0.4,0.4 0.8,-0.8 -0.5,-0.4 -0.7,0.8 z m 0,3.4 0.4,0.4 0.8,-0.8 -0.5,-0.4 -0.7,0.8 z m 0,3.4 0.4,0.4 0.8,-0.8 -0.5,-0.4 -0.7,0.8 z m 0,3.3 0.4,0.5 0.8,-0.8 -0.5,-0.5 -0.7,0.8 z m -1.7,-11.8 0.4,0.4 0.8,-0.8 -0.4,-0.4 -0.8,0.8 z m 0,3.4 0.4,0.4 0.8,-0.8 -0.4,-0.4 -0.8,0.8 z m 0,3.4 0.4,0.4 0.8,-0.8 -0.4,-0.4 -0.8,0.8 z m 0,3.3 0.4,0.5 0.8,-0.8 -0.4,-0.4 -0.8,0.7 z m -1.7,-8.4 0.4,0.4 0.8,-0.8 -0.4,-0.4 -0.8,0.8 z m 0,3.4 0.4,0.4 0.8,-0.8 -0.4,-0.4 -0.8,0.8 z m 0,3.4 0.4,0.4 0.8,-0.8 -0.4,-0.4 -0.8,0.8 z m 0,3.3 0.4,0.5 0.8,-0.8 -0.4,-0.5 -0.8,0.8 z M 12,111 l 0.4,0.4 0.8,-0.8 -0.4,-0.4 -0.8,0.8 z m 0,3.4 0.4,0.4 0.8,-0.8 -0.4,-0.4 -0.8,0.8 z m 0,3.4 0.4,0.4 0.8,-0.8 -0.4,-0.4 -0.8,0.8 z m 0,3.3 0.4,0.5 0.8,-0.8 -0.4,-0.4 -0.8,0.7 z m -1.7,-8.4 0.4,0.4 0.8,-0.8 -0.4,-0.4 -0.8,0.8 z m 0,3.4 0.4,0.4 0.8,-0.8 -0.4,-0.4 -0.8,0.8 z m 0,3.4 0.4,0.4 0.8,-0.8 -0.4,-0.4 -0.8,0.8 z m 0,3.3 0.4,0.5 0.8,-0.8 -0.4,-0.5 -0.8,0.8 z M 8.6,111 9,111.4 9.8,110.6 9.4,110.2 8.6,111 Z m 0,3.4 0.4,0.4 0.8,-0.8 -0.4,-0.4 -0.8,0.8 z m 0,3.4 0.4,0.4 0.8,-0.8 -0.4,-0.4 -0.8,0.8 z m 0,3.3 0.4,0.5 0.8,-0.8 -0.4,-0.4 -0.8,0.7 z m 28.1,27 -0.5,-0.4 -0.8,0.8 0.5,0.4 0.8,-0.8 z m 0,-3.4 -0.5,-0.4 -0.8,0.8 0.5,0.4 0.8,-0.8 z m 0,-3.4 -0.5,-0.4 -0.8,0.8 0.5,0.4 0.8,-0.8 z m 0,-3.4 -0.5,-0.4 -0.8,0.8 0.5,0.4 0.8,-0.8 z m 1.7,8.5 -0.5,-0.4 -0.8,0.8 0.5,0.4 0.8,-0.8 z m 0,-3.4 -0.5,-0.4 -0.8,0.8 0.5,0.4 0.8,-0.8 z m 0,-3.4 -0.5,-0.4 -0.8,0.8 0.5,0.4 0.8,-0.8 z m 1.6,8.5 -0.4,-0.4 -0.8,0.8 0.5,0.4 0.7,-0.8 z m 0,-3.4 -0.4,-0.4 -0.8,0.8 0.5,0.4 0.7,-0.8 z m 0,-3.4 -0.4,-0.4 -0.8,0.8 0.5,0.4 0.7,-0.8 z m 0,-3.4 -0.4,-0.4 -0.8,0.8 0.5,0.4 0.7,-0.8 z m 1.7,8.5 -0.4,-0.4 -0.8,0.8 0.4,0.4 0.8,-0.8 z m 0,-3.4 -0.4,-0.4 -0.8,0.8 0.4,0.4 0.8,-0.8 z m 0,-3.4 -0.4,-0.4 -0.8,0.8 0.4,0.4 0.8,-0.8 z m 1.7,8.5 -0.4,-0.4 -0.8,0.8 0.4,0.4 0.8,-0.8 z m 0,-3.4 -0.4,-0.4 -0.8,0.8 0.4,0.4 0.8,-0.8 z m 0,-3.4 -0.4,-0.4 -0.8,0.8 0.4,0.4 0.8,-0.8 z m 0.5,-1.3 0.4,0.4 0.8,-0.8 -0.4,-0.4 -0.8,0.8 z m 0,3.4 0.4,0.4 0.8,-0.8 -0.4,-0.4 -0.8,0.8 z m 0.4,3.8 0.8,-0.8 -0.4,-0.4 -0.8,0.8 0.4,0.4 z M 6.2,110 0,116.2 l 0,-2.5 3.7,-3.7 2.5,0 z m 17.3,14 13.9,-13.8 q 0.5,0 1,0.1 0.6,0.1 1.1,0.2 L 26,124 23.5,124 Z M 2.8,110 0,112.8 0,110 l 2.8,0 z m 24.1,14 13.3,-13.3 q 0.5,0.2 0.9,0.3 0.5,0.1 1,0.3 l -12.7,12.7 -2.5,0 z"
       style="font-style:normal;font-variant:normal;font-weight:normal;font-stretch:normal;font-size:100px;line-height:normal;font-family:'Homestead Display';fill:#493a2c"
       id="path3343" />
    <path
       d="m 62.304687,176.5 0,-1.8 5.3,5.3 -1.8,0 -3.5,-3.5 z m 0,-3.4 0,-1.8 8.700001,8.7 -1.8,0 -6.900001,-6.9 z m 0,6.8 0,-1.8 1.900001,1.9 -1.8,0 -0.100001,-0.1 z m 3,-13.9 1.8,0 14,14 -1.8,0 -14,-14 z m -3,3.7 0,-1.8 12.1,12.1 -1.8,0 -10.3,-10.3 z m 0,-3.7 1.4,0 14.000001,14 -1.800001,0 -13.6,-13.6 0,-0.4 z m 26.8,-28 1.8,0 6.4,6.4 0,1.8 -8.2,-8.2 z m -3.399999,0 1.8,0 9.799999,9.8 0,1.8 L 85.704688,138 Z m 11.599999,0 0,1.4 -1.4,-1.4 1.4,0 z m -4.799999,0 1.799999,0 3,3 0,1.8 -4.799999,-4.8 z m -30.200001,-28 2,0 -2,2 0,-2 z m 2.8,0 2.5,0 -5.3,5.4 0,-2.5 2.8,-2.9 z m 2.100001,14 -2.5,0 14,-14 2.5,0 -14,14 z m 1.3,-14 2.5,0 -8.700001,8.7 0,-2.5 6.200001,-6.2 z m 3.399999,0 2.5,0 -12.1,12.1 0,-2.5 9.6,-9.6 z m 25.4,54.9 0,-2.5 3.400003,-3.4 2.5,0 -5.900003,5.9 z m 0,-3.3 0,-2.5 0.1,-0.1 2.5,0 -2.6,2.6 z m -19.5,-51.6 -14,14 -1.5,0 0,-1 13,-13 2.5,0 z m 33.500003,21 -14.000003,0 0,-7 -2.199999,0 2.199999,-2.2 0,-0.8 -3.099999,3 -2.5,0 5.599999,-5.5 0,-0.9 -6.4,6.4 -2.5,0 8.9,-8.9 0,-0.9 -9.799999,9.8 -2.5,0 12.299999,-12.3 0,-0.9 -13.2,13.2 -0.8,0 0,14 0.8,0 13.2,13.2 0,0.8 -1,0 -14,-14 -1.5,0 14,14 -1.799999,0 -14,-14 -1.600001,0 14,14 -1.8,0 -14,-14 -1.599999,0 14,14 -1.8,0 -14,-14 -1.600001,0 14,14 -1.3,0 0,14 0.700001,0 13.399999,13.3 0.7,-0.8 -0.399999,-0.4 -0.400001,0.4 0,-0.8 -11.7,-11.7 1.8,0 10,9.9 0.7,-0.8 -0.399999,-0.4 -0.400001,0.4 0,-0.8 -8.299999,-8.3 1.799999,0 6.6,6.5 0.7,-0.8 -0.399999,-0.4 -0.400001,0.4 0,-0.8 -4.9,-4.9 1.800001,0 3.199999,3.2 0.7,-0.8 -0.399999,-0.5 -0.400001,0.4 0,-0.8 -1.5,-1.5 1.5,0 0,-0.2 6.800003,-6.8 2.5,0 -7.000003,7 0.900003,0 7,-7 2.5,0 -7,7 0.9,0 7,-7 0.4,0 0,2.1 -4.9,4.9 0.9,0 4,-4 0,2.5 -1.5,1.5 0.9,0 0.6,-0.6 0,2.6 -0.1,-0.1 -0.8,0.8 0.5,0.5 0.4,-0.4 0,2.6 -0.1,-0.1 -0.8,0.8 0.5,0.4 0.4,-0.4 0,2.6 -0.1,0 -0.8,0.8 0.5,0.4 0.4,-0.4 0,2.6 -0.1,0 -0.8,0.8 0.5,0.4 0.4,-0.4 0,1.1 -1.5,0 -0.3,-0.2 -0.2,0.2 -2.9,0 -0.2,-0.2 -0.3,0.2 -2.9,0 -0.2,-0.2 -0.3,0.2 -2.900003,0 -0.2,-0.2 -0.199999,0.2 -3,0 -14,-14 -1.5,0 14,14 -1.800001,0 -14,-14 -1.6,0 14,14 -1.799999,0 -14,-14 -1.600001,0 14,14 -1.8,0 -14,-14 -1.599999,0 14,14 -1.8,0 -14,-14 0.599999,0 0,-15.8 1.8,1.8 1.600001,0 -3.400001,-3.4 0,-1.8 5.200001,5.2 1.5,0 -6.700001,-6.7 0,-1.8 8.5,8.5 1.6,0 -10.1,-10.1 0,-1.8 11.900001,11.9 1.599999,0 -13.5,-13.5 0,-14.5 -1.2,0 14,-14 2.5,0 -14,14 0.8,0 14,-14 2.5,0 -14,14 0.9,0 14,-14 2.5,0 -14,14 0.900001,0 14,-14 2.5,0 -14,14 0.899999,0 14.000001,-14 15.700002,0 0,21 z m -1.8,35.2 -0.7,0.8 0.4,0.5 0.8,-0.8 -0.5,-0.5 z m 0,3.4 -0.7,0.8 0.4,0.5 0.8,-0.8 -0.5,-0.5 z m 0,3.4 -0.7,0.8 0.4,0.4 0.8,-0.8 -0.5,-0.4 z m 0,3.4 -0.7,0.8 0.4,0.4 0.8,-0.8 -0.5,-0.4 z m -1.6,-8.5 -0.8,0.8 0.4,0.5 0.8,-0.8 -0.4,-0.5 z m 0,3.4 -0.8,0.8 0.4,0.4 0.8,-0.8 -0.4,-0.4 z m 0,3.4 -0.8,0.8 0.4,0.4 0.8,-0.8 -0.4,-0.4 z m 0,3.4 -0.8,0.8 0.4,0.4 0.8,-0.8 -0.4,-0.4 z m -1.7,-11.9 -0.8,0.8 0.4,0.5 0.8,-0.8 -0.4,-0.5 z m 0,3.4 -0.8,0.8 0.4,0.5 0.8,-0.8 -0.4,-0.5 z m 0,3.4 -0.8,0.8 0.4,0.4 0.8,-0.8 -0.4,-0.4 z m 0,3.4 -0.8,0.8 0.4,0.4 0.8,-0.8 -0.4,-0.4 z m -1.7,-8.5 -0.8,0.8 0.4,0.5 0.8,-0.8 -0.4,-0.5 z m 0,3.4 -0.8,0.8 0.4,0.4 0.8,-0.8 -0.4,-0.4 z m 0,3.4 -0.8,0.8 0.4,0.4 0.8,-0.8 -0.4,-0.4 z m 0,3.4 -0.8,0.8 0.4,0.4 0.8,-0.8 -0.4,-0.4 z m -1.7,-11.9 -0.8,0.8 0.4,0.5 0.8,-0.8 -0.4,-0.5 z m 0,3.4 -0.8,0.8 0.4,0.5 0.8,-0.8 -0.4,-0.5 z m 0,3.4 -0.8,0.8 0.4,0.4 0.8,-0.8 -0.4,-0.4 z m 0,3.4 -0.8,0.8 0.4,0.4 0.8,-0.8 -0.4,-0.4 z m -1.7,-8.5 -0.8,0.8 0.4,0.5 0.8,-0.8 -0.4,-0.5 z m 0,3.4 -0.8,0.8 0.4,0.4 0.8,-0.8 -0.4,-0.4 z m 0,3.4 -0.8,0.8 0.4,0.4 0.8,-0.8 -0.4,-0.4 z m 0,3.4 -0.8,0.8 0.4,0.4 0.8,-0.8 -0.4,-0.4 z m -1.700003,-11.9 -0.8,0.8 0.400001,0.5 0.799999,-0.8 -0.4,-0.5 z m 0,3.4 -0.8,0.8 0.400001,0.5 0.799999,-0.8 -0.4,-0.5 z m 0,3.4 -0.8,0.8 0.400001,0.4 0.799999,-0.8 -0.4,-0.4 z m 0,3.4 -0.8,0.8 0.400001,0.4 0.799999,-0.8 -0.4,-0.4 z"
       style="font-style:normal;font-variant:normal;font-weight:normal;font-stretch:normal;font-size:100px;line-height:normal;font-family:'Homestead Display';fill:#493a2c"
       id="path3345" />
    <path
       d="m 168.37812,157.6 11.5,-11.5 0,2.5 -10.5,10.6 -1,-1.6 1.3,2.1 10.2,-10.2 0,2.5 -9.2,9.2 0.3,0.6 8.9,-8.9 0,2.5 -7.9,7.9 0.3,0.6 7.6,-7.6 0,2.5 -6.6,6.6 0.90001,1.4 -0.60001,-0.9 6.3,-6.2 0,2.5 -5.3,5.3 2.9,4.7 2.4,-2.4 0,2.5 -1.4,1.4 -0.9,-1.5 1.2,2.1 1.1,-1.1 0,2.5 -0.1,0.1 -0.2,-0.3 0.3,0.5 0,4 -14,0 -28.1,-44.8 0.6,0.8 -13.79999,13.8 0,-2.5 12.79999,-12.8 -1,-1.6 0.6,1.1 -12.39999,12.4 0,-2.5 11.49999,-11.5 -4.3,-6.8 -7.19999,7.3 0,-2.5 6.29999,-6.3 0.4,0.7 -0.5,-0.8 -0.7,0 -5.49999,5.5 0,-2.5 3,-3 -0.90001,0 -2.09999,2.1 0,-2.1 -7,0 0,-14 20.99999,0 29.8,47.6 z m -43.79999,3.2 13.99999,-14 0,2.5 -13.99999,14 0,-2.5 z m 51.59999,9.3 3.7,-3.7 0,2.5 -2.7,2.7 -1,-1.5 z m -1.3,-2.1 5,-5 0,2.5 -4,4.1 -1,-1.6 z m -50.29999,-13.9 13.99999,-14 0,2.5 -13.99999,14 0,-2.5 z m 13.99999,-14.9 -13.99999,14 0,-2.5 13.99999,-14 0,2.5 z m 0,26.8 7,0 0,14 -27.99999,0 0,-14 7,0 0,-1.8 13.99999,-14 0,2.5 -13.29999,13.3 0.89999,0 12.4,-12.4 0,2.5 -9.9,9.9 0.9,0 9,-9 0,2.5 -6.5,6.5 0.9,0 5.6,-5.6 0,2.5 -3.1,3.1 0.8,0 2.3,-2.3 0,2.3 z m -13.99999,-8.6 13.99999,-14 0,2.5 -13.99999,14 0,-2.5 z m 0,-16.9 10.19999,-10.2 0.9,1.6 -11.09999,11.1 0,-2.5 z m 42.49999,15 12.8,-12.8 0,2.5 -11.8,11.9 -1,-1.6 z m -1.2,-2.1 14,-14 0,2.5 -13.1,13.1 -0.9,-1.4 0,-0.2 z m -33.7,-27.2 0.9,1.5 -8.49999,8.6 0,-2.5 7.59999,-7.6 z m -7.59999,10.9 8.89999,-8.8 0.9,1.5 -9.79999,9.8 0,-2.5 z m 37.39999,-13.1 -3.1,-3.1 0,-1.8 4.9,4.9 -1.8,0 z m 24.9,-14 0,1.7 -1.69999,-1.7 1.69999,0 z m -26.5,14 -1.5,0 0,-1.5 1.5,1.5 z m 23.2,-14 3.3,3.3 0,1.8 -5.1,-5.1 1.8,0 z m -3.3,0 6.6,6.6 0,1.8 -7,-7 -0.8,0.8 0.4,0.5 0.4,-0.4 0,0.7 7,7 0,1.8 -7,-7 -0.8,0.8 0.4,0.4 0.4,-0.3 0,0.7 7,7 0,0.6 -1.19999,0 -5.80001,-5.8 -0.8,0.8 0.4,0.4 0.4,-0.3 0,0.7 4.2,4.2 -1.8,0 -2.4,-2.4 -0.8,0.8 0.4,0.4 0.4,-0.4 0,0.8 0.8,0.8 -0.8,0 0,1 0,0 -0.8,0.8 0.4,0.4 0.4,-0.4 0,2.6 0,-0.1 -0.8,0.8 0.4,0.5 0.4,-0.4 0,2.5 0,0 -0.8,0.8 0.4,0.5 0.4,-0.4 0,2.5 0,0 -0.8,0.8 0.4,0.4 0.4,-0.3 0,2.5 -14,14 0,-2.5 12.7,-12.8 -0.4,-0.4 -0.8,0.8 0.4,0.4 -0.8,0 -11.1,11.1 0,-2.5 9.4,-9.4 -0.5,-0.4 -0.8,0.8 0.4,0.4 -0.8,0 -7.7,7.7 0,-2.5 6,-6 -0.5,-0.4 -0.8,0.8 0.4,0.4 -0.8,0 -4.3,4.3 0,-2.5 2.6,-2.6 -0.5,-0.4 -0.8,0.8 0.5,0.4 -0.9,0 -0.9,0.9 0,-2.7 0.1,0.1 0.8,-0.7 -0.5,-0.5 -0.4,0.5 0,-2.7 0.1,0.1 0.8,-0.8 -0.5,-0.5 -0.4,0.5 0,-2.7 0.1,0.1 0.8,-0.8 -0.5,-0.5 -0.4,0.5 0,-2.7 0.1,0.1 0.8,-0.8 -0.5,-0.4 -0.4,0.4 0,-1.4 -0.5,0 -6.5,-6.5 0,-1.8 7.1,7.1 0.8,-0.8 -0.5,-0.4 -0.4,0.4 0,-0.9 -7,-7 0,-1.8 7.1,7.1 0.8,-0.8 -0.5,-0.4 -0.4,0.4 0,-0.9 -7,-7 0,-0.7 1.1,0 6,6 0.8,-0.7 -0.5,-0.5 -0.4,0.5 0,-0.9 -4.4,-4.4 1.8,0 2.7,2.7 0.8,-0.8 -0.5,-0.5 -0.4,0.5 0,-0.9 -1,-1 2.9,0 -0.6,0.5 0.5,0.5 0.8,-0.8 -0.2,-0.2 2.9,0 -0.6,0.5 0.5,0.5 0.8,-0.8 -0.2,-0.2 2.8,0 -0.5,0.5 0.5,0.5 0.8,-0.8 -0.2,-0.2 2.8,0 -0.5,0.5 0.4,0.5 0.8,-0.8 -0.1,-0.2 1.8,0 z m -11.8,23.9 -0.5,-0.5 -0.8,0.8 0.5,0.5 0.8,-0.8 z m 0,-3.4 -0.5,-0.5 -0.8,0.8 0.5,0.5 0.8,-0.8 z m 0,-3.4 -0.5,-0.5 -0.8,0.8 0.5,0.5 0.8,-0.8 z m 0,-3.4 -0.5,-0.4 -0.8,0.8 0.5,0.4 0.8,-0.8 z m 0,-3.4 -0.5,-0.4 -0.8,0.8 0.5,0.4 0.8,-0.8 z m 0,-3.4 -0.5,-0.4 -0.8,0.8 0.5,0.4 0.8,-0.8 z m 0,-3.3 -0.5,-0.5 -0.8,0.8 0.5,0.5 0.8,-0.8 z m 1.7,22 -0.5,-0.5 -0.8,0.8 0.5,0.4 0.8,-0.7 z m 0,-3.4 -0.5,-0.5 -0.8,0.8 0.5,0.5 0.8,-0.8 z m 0,-3.4 -0.5,-0.5 -0.8,0.8 0.5,0.5 0.8,-0.8 z m 0,-3.4 -0.5,-0.4 -0.8,0.8 0.5,0.4 0.8,-0.8 z m 0,-3.4 -0.5,-0.4 -0.8,0.8 0.5,0.4 0.8,-0.8 z m 0,-3.4 -0.5,-0.4 -0.8,0.8 0.5,0.4 0.8,-0.8 z m 0,-3.3 -0.5,-0.5 -0.8,0.8 0.5,0.4 0.8,-0.7 z m 0,-3.4 -0.5,-0.5 -0.8,0.8 0.5,0.5 0.8,-0.8 z m 1.7,22 -0.5,-0.5 -0.8,0.8 0.5,0.5 0.8,-0.8 z m 0,-3.4 -0.5,-0.5 -0.8,0.8 0.5,0.5 0.8,-0.8 z m 0,-3.4 -0.5,-0.5 -0.8,0.8 0.5,0.5 0.8,-0.8 z m 0,-3.4 -0.5,-0.4 -0.8,0.8 0.5,0.4 0.8,-0.8 z m 0,-3.4 -0.5,-0.4 -0.8,0.8 0.5,0.4 0.8,-0.8 z m 0,-3.4 -0.5,-0.4 -0.8,0.8 0.5,0.4 0.8,-0.8 z m 0,-3.3 -0.5,-0.5 -0.8,0.8 0.5,0.5 0.8,-0.8 z m 1.7,22 -0.5,-0.5 -0.8,0.8 0.5,0.4 0.8,-0.7 z m 0,-3.4 -0.5,-0.5 -0.8,0.8 0.5,0.5 0.8,-0.8 z m 0,-3.4 -0.5,-0.5 -0.8,0.8 0.5,0.5 0.8,-0.8 z m 0,-3.4 -0.5,-0.4 -0.8,0.8 0.5,0.4 0.8,-0.8 z m 0,-3.4 -0.5,-0.4 -0.8,0.8 0.5,0.4 0.8,-0.8 z m 0,-3.4 -0.5,-0.4 -0.8,0.8 0.5,0.4 0.8,-0.8 z m 0,-3.3 -0.5,-0.5 -0.8,0.8 0.5,0.4 0.8,-0.7 z m 0,-3.4 -0.5,-0.5 -0.8,0.8 0.5,0.5 0.8,-0.8 z m 1.7,22 -0.5,-0.5 -0.8,0.8 0.5,0.5 0.8,-0.8 z m 0,-3.4 -0.5,-0.5 -0.8,0.8 0.5,0.5 0.8,-0.8 z m 0,-3.4 -0.5,-0.5 -0.8,0.8 0.5,0.5 0.8,-0.8 z m 0,-3.4 -0.5,-0.4 -0.8,0.8 0.5,0.4 0.8,-0.8 z m 0,-3.4 -0.5,-0.4 -0.8,0.8 0.5,0.4 0.8,-0.8 z m 0,-3.4 -0.5,-0.4 -0.8,0.8 0.5,0.4 0.8,-0.8 z m 0,-3.3 -0.5,-0.5 -0.8,0.8 0.5,0.5 0.8,-0.8 z m 1.6,22 -0.4,-0.5 -0.8,0.8 0.4,0.4 0.8,-0.7 z m 0,-3.4 -0.4,-0.5 -0.8,0.8 0.4,0.5 0.8,-0.8 z m 0,-3.4 -0.4,-0.5 -0.8,0.8 0.4,0.5 0.8,-0.8 z m 0,-3.4 -0.4,-0.4 -0.8,0.8 0.4,0.4 0.8,-0.8 z m 0,-3.4 -0.4,-0.4 -0.8,0.8 0.4,0.4 0.8,-0.8 z m 0,-3.4 -0.4,-0.4 -0.8,0.8 0.4,0.4 0.8,-0.8 z m 0,-3.3 -0.4,-0.5 -0.8,0.8 0.4,0.4 0.8,-0.7 z m 0,-3.4 -0.4,-0.5 -0.8,0.8 0.4,0.5 0.8,-0.8 z m 1.7,22 -0.4,-0.5 -0.8,0.8 0.4,0.5 0.8,-0.8 z m 0,-3.4 -0.4,-0.5 -0.8,0.8 0.4,0.5 0.8,-0.8 z m 0,-3.4 -0.4,-0.5 -0.8,0.8 0.4,0.5 0.8,-0.8 z m 0,-3.4 -0.4,-0.4 -0.8,0.8 0.4,0.4 0.8,-0.8 z m 0,-3.4 -0.4,-0.4 -0.8,0.8 0.4,0.4 0.8,-0.8 z m 0,-3.4 -0.4,-0.4 -0.8,0.8 0.4,0.4 0.8,-0.8 z m 0,-3.3 -0.4,-0.5 -0.8,0.8 0.4,0.5 0.8,-0.8 z"
       style="font-style:normal;font-variant:normal;font-weight:normal;font-stretch:normal;font-size:100px;line-height:normal;font-family:'Homestead Display';fill:#493a2c"
       id="path3347" />
    <path
       d="m 243.96406,157.6 11.5,-11.5 0,2.5 -10.5,10.6 -1,-1.6 1.3,2.1 10.2,-10.2 0,2.5 -9.2,9.2 0.3,0.6 8.9,-8.9 0,2.5 -7.9,7.9 0.3,0.6 7.6,-7.6 0,2.5 -6.6,6.6 0.9,1.4 -0.6,-0.9 6.3,-6.2 0,2.5 -5.3,5.3 2.9,4.7 2.4,-2.4 0,2.5 -1.4,1.4 -0.9,-1.5 1.2,2.1 1.1,-1.1 0,2.5 -0.1,0.1 -0.2,-0.3 0.3,0.5 0,4 -14,0 -28.1,-44.8 0.6,0.8 -13.8,13.8 0,-2.5 12.8,-12.8 -1,-1.6 0.6,1.1 -12.4,12.4 0,-2.5 11.5,-11.5 -4.3,-6.8 -7.2,7.3 0,-2.5 6.3,-6.3 0.4,0.7 -0.5,-0.8 -0.7,0 -5.5,5.5 0,-2.5 3,-3 -0.9,0 -2.1,2.1 0,-2.1 -7,0 0,-14 21,0 29.8,47.6 z m -43.8,3.2 14,-14 0,2.5 -14,14 0,-2.5 z m 51.6,9.3 3.7,-3.7 0,2.5 -2.7,2.7 -1,-1.5 z m -1.3,-2.1 5,-5 0,2.5 -4,4.1 -1,-1.6 z m -50.3,-13.9 14,-14 0,2.5 -14,14 0,-2.5 z m 14,-14.9 -14,14 0,-2.5 14,-14 0,2.5 z m 0,26.8 7,0 0,14 -28,0 0,-14 7,0 0,-1.8 14,-14 0,2.5 -13.3,13.3 0.9,0 12.4,-12.4 0,2.5 -9.9,9.9 0.9,0 9,-9 0,2.5 -6.5,6.5 0.9,0 5.6,-5.6 0,2.5 -3.1,3.1 0.8,0 2.3,-2.3 0,2.3 z m -14,-8.6 14,-14 0,2.5 -14,14 0,-2.5 z m 0,-16.9 10.2,-10.2 0.9,1.6 -11.1,11.1 0,-2.5 z m 42.5,15 12.8,-12.8 0,2.5 -11.8,11.9 -1,-1.6 z m -1.2,-2.1 14,-14 0,2.5 -13.1,13.1 -0.9,-1.4 0,-0.2 z m -33.7,-27.2 0.9,1.5 -8.5,8.6 0,-2.5 7.6,-7.6 z m -7.6,10.9 8.9,-8.8 0.9,1.5 -9.8,9.8 0,-2.5 z m 37.4,-13.1 -3.1,-3.1 0,-1.8 4.9,4.9 -1.8,0 z m 24.9,-14 0,1.7 -1.7,-1.7 1.7,0 z m -26.5,14 -1.5,0 0,-1.5 1.5,1.5 z m 23.2,-14 3.3,3.3 0,1.8 -5.1,-5.1 1.8,0 z m -3.3,0 6.6,6.6 0,1.8 -7,-7 -0.8,0.8 0.4,0.5 0.4,-0.4 0,0.7 7,7 0,1.8 -7,-7 -0.8,0.8 0.4,0.4 0.4,-0.3 0,0.7 7,7 0,0.6 -1.2,0 -5.8,-5.8 -0.8,0.8 0.4,0.4 0.4,-0.3 0,0.7 4.2,4.2 -1.8,0 -2.4,-2.4 -0.8,0.8 0.4,0.4 0.4,-0.4 0,0.8 0.8,0.8 -0.8,0 0,1 0,0 -0.8,0.8 0.4,0.4 0.4,-0.4 0,2.6 0,-0.1 -0.8,0.8 0.4,0.5 0.4,-0.4 0,2.5 0,0 -0.8,0.8 0.4,0.5 0.4,-0.4 0,2.5 0,0 -0.8,0.8 0.4,0.4 0.4,-0.3 0,2.5 -14,14 0,-2.5 12.7,-12.8 -0.4,-0.4 -0.8,0.8 0.4,0.4 -0.8,0 -11.1,11.1 0,-2.5 9.4,-9.4 -0.5,-0.4 -0.8,0.8 0.4,0.4 -0.8,0 -7.7,7.7 0,-2.5 6,-6 -0.5,-0.4 -0.8,0.8 0.4,0.4 -0.8,0 -4.3,4.3 0,-2.5 2.6,-2.6 -0.5,-0.4 -0.8,0.8 0.5,0.4 -0.9,0 -0.9,0.9 0,-2.7 0.1,0.1 0.8,-0.7 -0.5,-0.5 -0.4,0.5 0,-2.7 0.1,0.1 0.8,-0.8 -0.5,-0.5 -0.4,0.5 0,-2.7 0.1,0.1 0.8,-0.8 -0.5,-0.5 -0.4,0.5 0,-2.7 0.1,0.1 0.8,-0.8 -0.5,-0.4 -0.4,0.4 0,-1.4 -0.5,0 -6.5,-6.5 0,-1.8 7.1,7.1 0.8,-0.8 -0.5,-0.4 -0.4,0.4 0,-0.9 -7,-7 0,-1.8 7.1,7.1 0.8,-0.8 -0.5,-0.4 -0.4,0.4 0,-0.9 -7,-7 0,-0.7 1.1,0 6,6 0.8,-0.7 -0.5,-0.5 -0.4,0.5 0,-0.9 -4.4,-4.4 1.8,0 2.7,2.7 0.8,-0.8 -0.5,-0.5 -0.4,0.5 0,-0.9 -1,-1 2.9,0 -0.6,0.5 0.5,0.5 0.8,-0.8 -0.2,-0.2 2.9,0 -0.6,0.5 0.5,0.5 0.8,-0.8 -0.2,-0.2 2.8,0 -0.5,0.5 0.5,0.5 0.8,-0.8 -0.2,-0.2 2.8,0 -0.5,0.5 0.4,0.5 0.8,-0.8 -0.1,-0.2 1.8,0 z m -11.8,23.9 -0.5,-0.5 -0.8,0.8 0.5,0.5 0.8,-0.8 z m 0,-3.4 -0.5,-0.5 -0.8,0.8 0.5,0.5 0.8,-0.8 z m 0,-3.4 -0.5,-0.5 -0.8,0.8 0.5,0.5 0.8,-0.8 z m 0,-3.4 -0.5,-0.4 -0.8,0.8 0.5,0.4 0.8,-0.8 z m 0,-3.4 -0.5,-0.4 -0.8,0.8 0.5,0.4 0.8,-0.8 z m 0,-3.4 -0.5,-0.4 -0.8,0.8 0.5,0.4 0.8,-0.8 z m 0,-3.3 -0.5,-0.5 -0.8,0.8 0.5,0.5 0.8,-0.8 z m 1.7,22 -0.5,-0.5 -0.8,0.8 0.5,0.4 0.8,-0.7 z m 0,-3.4 -0.5,-0.5 -0.8,0.8 0.5,0.5 0.8,-0.8 z m 0,-3.4 -0.5,-0.5 -0.8,0.8 0.5,0.5 0.8,-0.8 z m 0,-3.4 -0.5,-0.4 -0.8,0.8 0.5,0.4 0.8,-0.8 z m 0,-3.4 -0.5,-0.4 -0.8,0.8 0.5,0.4 0.8,-0.8 z m 0,-3.4 -0.5,-0.4 -0.8,0.8 0.5,0.4 0.8,-0.8 z m 0,-3.3 -0.5,-0.5 -0.8,0.8 0.5,0.4 0.8,-0.7 z m 0,-3.4 -0.5,-0.5 -0.8,0.8 0.5,0.5 0.8,-0.8 z m 1.7,22 -0.5,-0.5 -0.8,0.8 0.5,0.5 0.8,-0.8 z m 0,-3.4 -0.5,-0.5 -0.8,0.8 0.5,0.5 0.8,-0.8 z m 0,-3.4 -0.5,-0.5 -0.8,0.8 0.5,0.5 0.8,-0.8 z m 0,-3.4 -0.5,-0.4 -0.8,0.8 0.5,0.4 0.8,-0.8 z m 0,-3.4 -0.5,-0.4 -0.8,0.8 0.5,0.4 0.8,-0.8 z m 0,-3.4 -0.5,-0.4 -0.8,0.8 0.5,0.4 0.8,-0.8 z m 0,-3.3 -0.5,-0.5 -0.8,0.8 0.5,0.5 0.8,-0.8 z m 1.7,22 -0.5,-0.5 -0.8,0.8 0.5,0.4 0.8,-0.7 z m 0,-3.4 -0.5,-0.5 -0.8,0.8 0.5,0.5 0.8,-0.8 z m 0,-3.4 -0.5,-0.5 -0.8,0.8 0.5,0.5 0.8,-0.8 z m 0,-3.4 -0.5,-0.4 -0.8,0.8 0.5,0.4 0.8,-0.8 z m 0,-3.4 -0.5,-0.4 -0.8,0.8 0.5,0.4 0.8,-0.8 z m 0,-3.4 -0.5,-0.4 -0.8,0.8 0.5,0.4 0.8,-0.8 z m 0,-3.3 -0.5,-0.5 -0.8,0.8 0.5,0.4 0.8,-0.7 z m 0,-3.4 -0.5,-0.5 -0.8,0.8 0.5,0.5 0.8,-0.8 z m 1.7,22 -0.5,-0.5 -0.8,0.8 0.5,0.5 0.8,-0.8 z m 0,-3.4 -0.5,-0.5 -0.8,0.8 0.5,0.5 0.8,-0.8 z m 0,-3.4 -0.5,-0.5 -0.8,0.8 0.5,0.5 0.8,-0.8 z m 0,-3.4 -0.5,-0.4 -0.8,0.8 0.5,0.4 0.8,-0.8 z m 0,-3.4 -0.5,-0.4 -0.8,0.8 0.5,0.4 0.8,-0.8 z m 0,-3.4 -0.5,-0.4 -0.8,0.8 0.5,0.4 0.8,-0.8 z m 0,-3.3 -0.5,-0.5 -0.8,0.8 0.5,0.5 0.8,-0.8 z m 1.6,22 -0.4,-0.5 -0.8,0.8 0.4,0.4 0.8,-0.7 z m 0,-3.4 -0.4,-0.5 -0.8,0.8 0.4,0.5 0.8,-0.8 z m 0,-3.4 -0.4,-0.5 -0.8,0.8 0.4,0.5 0.8,-0.8 z m 0,-3.4 -0.4,-0.4 -0.8,0.8 0.4,0.4 0.8,-0.8 z m 0,-3.4 -0.4,-0.4 -0.8,0.8 0.4,0.4 0.8,-0.8 z m 0,-3.4 -0.4,-0.4 -0.8,0.8 0.4,0.4 0.8,-0.8 z m 0,-3.3 -0.4,-0.5 -0.8,0.8 0.4,0.4 0.8,-0.7 z m 0,-3.4 -0.4,-0.5 -0.8,0.8 0.4,0.5 0.8,-0.8 z m 1.7,22 -0.4,-0.5 -0.8,0.8 0.4,0.5 0.8,-0.8 z m 0,-3.4 -0.4,-0.5 -0.8,0.8 0.4,0.5 0.8,-0.8 z m 0,-3.4 -0.4,-0.5 -0.8,0.8 0.4,0.5 0.8,-0.8 z m 0,-3.4 -0.4,-0.4 -0.8,0.8 0.4,0.4 0.8,-0.8 z m 0,-3.4 -0.4,-0.4 -0.8,0.8 0.4,0.4 0.8,-0.8 z m 0,-3.4 -0.4,-0.4 -0.8,0.8 0.4,0.4 0.8,-0.8 z m 0,-3.3 -0.4,-0.5 -0.8,0.8 0.4,0.5 0.8,-0.8 z"
       style="font-style:normal;font-variant:normal;font-weight:normal;font-stretch:normal;font-size:100px;line-height:normal;font-family:'Homestead Display';fill:#493a2c"
       id="path3349" />
    <path
       d="m 268.75,176.5 0,-1.8 5.3,5.3 -1.8,0 -3.5,-3.5 z m 0,-3.4 0,-1.8 8.7,8.7 -1.8,0 -6.9,-6.9 z m 0,6.8 0,-1.8 1.9,1.9 -1.8,0 -0.1,-0.1 z m 3,-13.9 1.8,0 14,14 -1.8,0 -14,-14 z m -3,3.7 0,-1.8 12.1,12.1 -1.8,0 -10.3,-10.3 z m 0,-3.7 1.4,0 14,14 -1.8,0 -13.6,-13.6 0,-0.4 z m 26.8,-28 1.8,0 6.4,6.4 0,1.8 -8.2,-8.2 z m -3.4,0 1.8,0 9.8,9.8 0,1.8 -11.6,-11.6 z m 11.6,0 0,1.4 -1.4,-1.4 1.4,0 z m -4.8,0 1.8,0 3,3 0,1.8 -4.8,-4.8 z m -30.2,-28 2,0 -2,2 0,-2 z m 2.8,0 2.5,0 -5.3,5.4 0,-2.5 2.8,-2.9 z m 2.1,14 -2.5,0 14,-14 2.5,0 -14,14 z m 1.3,-14 2.5,0 -8.7,8.7 0,-2.5 6.2,-6.2 z m 3.4,0 2.5,0 -12.1,12.1 0,-2.5 9.6,-9.6 z m 25.4,54.9 0,-2.5 3.4,-3.4 2.5,0 -5.9,5.9 z m 0,-3.3 0,-2.5 0.1,-0.1 2.5,0 -2.6,2.6 z m -19.5,-51.6 -14,14 -1.5,0 0,-1 13,-13 2.5,0 z m 33.5,21 -14,0 0,-7 -2.2,0 2.2,-2.2 0,-0.8 -3.1,3 -2.5,0 5.6,-5.5 0,-0.9 -6.4,6.4 -2.5,0 8.9,-8.9 0,-0.9 -9.8,9.8 -2.5,0 12.3,-12.3 0,-0.9 -13.2,13.2 -0.8,0 0,14 0.8,0 13.2,13.2 0,0.8 -1,0 -14,-14 -1.5,0 14,14 -1.8,0 -14,-14 -1.6,0 14,14 -1.8,0 -14,-14 -1.6,0 14,14 -1.8,0 -14,-14 -1.6,0 14,14 -1.3,0 0,14 0.7,0 13.4,13.3 0.7,-0.8 -0.4,-0.4 -0.4,0.4 0,-0.8 -11.7,-11.7 1.8,0 10,9.9 0.7,-0.8 -0.4,-0.4 -0.4,0.4 0,-0.8 -8.3,-8.3 1.8,0 6.6,6.5 0.7,-0.8 -0.4,-0.4 -0.4,0.4 0,-0.8 -4.9,-4.9 1.8,0 3.2,3.2 0.7,-0.8 -0.4,-0.5 -0.4,0.4 0,-0.8 -1.5,-1.5 1.5,0 0,-0.2 6.8,-6.8 2.5,0 -7,7 0.9,0 7,-7 2.5,0 -7,7 0.9,0 7,-7 0.4,0 0,2.1 -4.9,4.9 0.9,0 4,-4 0,2.5 -1.5,1.5 0.9,0 0.6,-0.6 0,2.6 -0.1,-0.1 -0.8,0.8 0.5,0.5 0.4,-0.4 0,2.6 -0.1,-0.1 -0.8,0.8 0.5,0.4 0.4,-0.4 0,2.6 -0.1,0 -0.8,0.8 0.5,0.4 0.4,-0.4 0,2.6 -0.1,0 -0.8,0.8 0.5,0.4 0.4,-0.4 0,1.1 -1.5,0 -0.3,-0.2 -0.2,0.2 -2.9,0 -0.2,-0.2 -0.3,0.2 -2.9,0 -0.2,-0.2 -0.3,0.2 -2.9,0 -0.2,-0.2 -0.2,0.2 -3,0 -14,-14 -1.5,0 14,14 -1.8,0 -14,-14 -1.6,0 14,14 -1.8,0 -14,-14 -1.6,0 14,14 -1.8,0 -14,-14 -1.6,0 14,14 -1.8,0 -14,-14 0.6,0 0,-15.8 1.8,1.8 1.6,0 -3.4,-3.4 0,-1.8 5.2,5.2 1.5,0 -6.7,-6.7 0,-1.8 8.5,8.5 1.6,0 -10.1,-10.1 0,-1.8 11.9,11.9 1.6,0 -13.5,-13.5 0,-14.5 -1.2,0 14,-14 2.5,0 -14,14 0.8,0 14,-14 2.5,0 -14,14 0.9,0 14,-14 2.5,0 -14,14 0.9,0 14,-14 2.5,0 -14,14 0.9,0 14,-14 15.7,0 0,21 z m -1.8,35.2 -0.7,0.8 0.4,0.5 0.8,-0.8 -0.5,-0.5 z m 0,3.4 -0.7,0.8 0.4,0.5 0.8,-0.8 -0.5,-0.5 z m 0,3.4 -0.7,0.8 0.4,0.4 0.8,-0.8 -0.5,-0.4 z m 0,3.4 -0.7,0.8 0.4,0.4 0.8,-0.8 -0.5,-0.4 z m -1.6,-8.5 -0.8,0.8 0.4,0.5 0.8,-0.8 -0.4,-0.5 z m 0,3.4 -0.8,0.8 0.4,0.4 0.8,-0.8 -0.4,-0.4 z m 0,3.4 -0.8,0.8 0.4,0.4 0.8,-0.8 -0.4,-0.4 z m 0,3.4 -0.8,0.8 0.4,0.4 0.8,-0.8 -0.4,-0.4 z m -1.7,-11.9 -0.8,0.8 0.4,0.5 0.8,-0.8 -0.4,-0.5 z m 0,3.4 -0.8,0.8 0.4,0.5 0.8,-0.8 -0.4,-0.5 z m 0,3.4 -0.8,0.8 0.4,0.4 0.8,-0.8 -0.4,-0.4 z m 0,3.4 -0.8,0.8 0.4,0.4 0.8,-0.8 -0.4,-0.4 z m -1.7,-8.5 -0.8,0.8 0.4,0.5 0.8,-0.8 -0.4,-0.5 z m 0,3.4 -0.8,0.8 0.4,0.4 0.8,-0.8 -0.4,-0.4 z m 0,3.4 -0.8,0.8 0.4,0.4 0.8,-0.8 -0.4,-0.4 z m 0,3.4 -0.8,0.8 0.4,0.4 0.8,-0.8 -0.4,-0.4 z m -1.7,-11.9 -0.8,0.8 0.4,0.5 0.8,-0.8 -0.4,-0.5 z m 0,3.4 -0.8,0.8 0.4,0.5 0.8,-0.8 -0.4,-0.5 z m 0,3.4 -0.8,0.8 0.4,0.4 0.8,-0.8 -0.4,-0.4 z m 0,3.4 -0.8,0.8 0.4,0.4 0.8,-0.8 -0.4,-0.4 z m -1.7,-8.5 -0.8,0.8 0.4,0.5 0.8,-0.8 -0.4,-0.5 z m 0,3.4 -0.8,0.8 0.4,0.4 0.8,-0.8 -0.4,-0.4 z m 0,3.4 -0.8,0.8 0.4,0.4 0.8,-0.8 -0.4,-0.4 z m 0,3.4 -0.8,0.8 0.4,0.4 0.8,-0.8 -0.4,-0.4 z m -1.7,-11.9 -0.8,0.8 0.4,0.5 0.8,-0.8 -0.4,-0.5 z m 0,3.4 -0.8,0.8 0.4,0.5 0.8,-0.8 -0.4,-0.5 z m 0,3.4 -0.8,0.8 0.4,0.4 0.8,-0.8 -0.4,-0.4 z m 0,3.4 -0.8,0.8 0.4,0.4 0.8,-0.8 -0.4,-0.4 z"
       style="font-style:normal;font-variant:normal;font-weight:normal;font-stretch:normal;font-size:100px;line-height:normal;font-family:'Homestead Display';fill:#493a2c"
       id="path3351" />
    <path
       d="m 345.02344,144.2 14,14 0,1.8 -14,-14 0,-1.8 z m 0,-3.3 14,14 0,1.8 -14,-14 0,-1.8 z m 0,6.7 14,14 0,1.8 -14,-14 0,-1.8 z m 0,-13.5 14,14 0,1.8 -14,-14 0,-1.8 z m 0,3.4 14,14 0,1.8 -14,-14 0,-1.8 z m 0,-6.8 14,14 0,1.8 -14,-14 0,-1.8 z m 14,12.4 -14,-14 0,-1.8 14,14 0,1.8 z m 4.9,36.9 2.1,-2.1 0,2.1 -2.1,0 z m -3.4,0 5.5,-5.5 0,2.5 -3,3 -2.5,0 z m -22.5,-14 1.8,0 -1.8,1.8 0,-1.8 z m 26.3,0 1.7,0 0,0.8 -7.7,7.7 0.5,0.4 7.2,-7.2 0,2.5 -7.7,7.7 0.5,0.4 7.2,-7.2 0,2.5 -6.4,6.4 -2.5,0 0.8,-0.8 -0.5,-0.4 -0.8,0.8 0.5,0.4 -3.4,0 0.8,-0.8 -0.5,-0.4 -0.7,0.8 0.4,0.4 -3.4,0 0.8,-0.8 -0.4,-0.4 -0.8,0.8 0.4,0.4 -3.4,0 0.8,-0.8 -0.4,-0.4 -0.8,0.8 0.4,0.4 -3.3,0 1.4,-1.4 0,-0.5 0.2,0.2 0.8,-0.8 -0.4,-0.4 -2.9,2.9 -2.5,0 4.8,-4.8 0,-0.5 0.2,0.2 0.8,-0.8 -0.4,-0.4 -6.3,6.3 -1.3,0 0,-1.2 7,-7 0,-0.5 0.2,0.3 0.8,-0.8 -0.4,-0.5 -7.6,7.6 0,-2.5 7,-7 0,-0.5 0.2,0.3 0.8,-0.8 -0.4,-0.5 -7.6,7.6 0,-2.5 6,-6 1,0 0,-1.5 1.5,1.5 0,0 0,0 0.4,0.5 0.5,-0.5 0.6,0 -3,-3 0,-1.8 4.8,4.8 0.1,0 0,0 0.4,0.5 0.5,-0.5 0.6,0 -6.4,-6.4 0,-1.8 8.2,8.2 0.1,0 0,0 0.4,0.5 0.5,-0.5 0.6,0 -9.8,-9.8 0,-1.8 11.6,11.6 0.1,0 -0.1,0 0.5,0.5 0.5,-0.5 0.6,0 -13.2,-13.2 0,-1.8 14,14 0,1 1.1,0 -1.8,1.7 0.5,0.5 2.1,-2.2 2.5,0 -5.1,5.1 0.5,0.5 5.5,-5.6 z m -16.6,9.8 -0.4,-0.4 -0.8,0.8 0.4,0.4 0.8,-0.8 z m 0,-3.3 -0.4,-0.5 -0.8,0.8 0.4,0.4 0.8,-0.7 z m 0,-3.4 -0.4,-0.5 -0.8,0.8 0.4,0.5 0.8,-0.8 z m 1.7,8.4 -0.4,-0.4 -0.8,0.8 0.4,0.4 0.8,-0.8 z m 0,-3.4 -0.4,-0.4 -0.8,0.8 0.4,0.4 0.8,-0.8 z m 0,-3.3 -0.4,-0.5 -0.8,0.8 0.4,0.5 0.8,-0.8 z m 0,-3.4 -0.4,-0.5 -0.8,0.8 0.4,0.5 0.8,-0.8 z m 1.7,8.4 -0.4,-0.4 -0.8,0.8 0.4,0.4 0.8,-0.8 z m 0,-3.3 -0.4,-0.5 -0.8,0.8 0.4,0.4 0.8,-0.7 z m 0,-3.4 -0.4,-0.5 -0.8,0.8 0.4,0.5 0.8,-0.8 z m 1.7,8.4 -0.4,-0.4 -0.8,0.8 0.4,0.4 0.8,-0.8 z m 0,-3.4 -0.4,-0.4 -0.8,0.8 0.4,0.4 0.8,-0.8 z m 0,-3.3 -0.4,-0.5 -0.8,0.8 0.4,0.5 0.8,-0.8 z m 0,-3.4 -0.4,-0.5 -0.8,0.8 0.4,0.5 0.8,-0.8 z m 1.7,8.4 -0.5,-0.4 -0.7,0.8 0.4,0.4 0.8,-0.8 z m 0,-3.3 -0.5,-0.5 -0.7,0.8 0.4,0.4 0.8,-0.7 z m 0,-3.4 -0.5,-0.5 -0.7,0.8 0.4,0.5 0.8,-0.8 z m 1.7,8.4 -0.5,-0.4 -0.8,0.8 0.5,0.4 0.8,-0.8 z m 0,-3.4 -0.5,-0.4 -0.8,0.8 0.5,0.4 0.8,-0.8 z m 0,-3.3 -0.5,-0.5 -0.8,0.8 0.5,0.5 0.8,-0.8 z m 0,-3.4 -0.5,-0.5 -0.8,0.8 0.5,0.5 0.8,-0.8 z m 1.7,8.4 -0.5,-0.4 -0.8,0.8 0.5,0.4 0.8,-0.8 z m 0,-3.3 -0.5,-0.5 -0.8,0.8 0.5,0.4 0.8,-0.7 z m 0,-3.4 -0.5,-0.5 -0.8,0.8 0.5,0.5 0.8,-0.8 z m -19.9,-0.5 2.6,-2.6 2.5,0 -5.1,5.1 0,-2.5 z m 42,-58.6 0,21 -14,0 0,-7 -1.3,0 1.3,-1.3 0,-0.9 -2.2,2.2 -2.5,0 4.7,-4.7 0,-0.9 -5.6,5.6 -1.8,0 0.4,0.4 0,1.8 -2.2,-2.2 -1.6,0 3.8,3.8 0,1.8 -5.6,-5.6 -1.6,0 7.2,7.2 0,1.8 -9,-9 -1.6,0 10.6,10.6 0,1.8 -12.4,-12.4 -1.5,0 13.9,13.9 0,1.8 -14,-14 0,-1.7 -7,0 0,7 -14,0 0,-21 24,0 0.1,0.1 0.1,-0.1 3.2,0 0.1,0.1 0.1,-0.1 3.1,0 0.2,0.1 0.1,-0.1 3.1,0 0.1,0.1 0.2,-0.1 2.5,0 -1.9,1.9 0,0.8 -0.4,-0.4 -0.8,0.8 0.4,0.4 3.5,-3.5 2.5,0 -5.2,5.2 0,0.9 -0.4,-0.5 -0.8,0.8 0.4,0.5 6.9,-6.9 14.9,0 z m -34.5,12.9 -0.4,-0.5 -0.1,0.1 0,0.9 0.5,-0.5 z m 0,-3.4 -0.4,-0.5 -0.1,0.1 0,0.9 0.5,-0.5 z m 0,-3.4 -0.4,-0.5 -0.1,0.1 0,0.9 0.5,-0.5 z m 0,-3.4 -0.4,-0.4 -0.1,0 0,0.9 0.5,-0.5 z m 1.7,8.5 -0.4,-0.5 -0.8,0.8 0.4,0.5 0.8,-0.8 z m 0,-3.4 -0.4,-0.5 -0.8,0.8 0.4,0.5 0.8,-0.8 z m 0,-3.4 -0.4,-0.4 -0.8,0.8 0.4,0.4 0.8,-0.8 z m 0,-3.4 -0.4,-0.4 -0.8,0.8 0.4,0.4 0.8,-0.8 z m 1.7,11.9 -0.5,-0.5 -0.7,0.8 0.4,0.5 0.8,-0.8 z m 0,-3.4 -0.5,-0.5 -0.7,0.8 0.4,0.5 0.8,-0.8 z m 0,-3.4 -0.5,-0.5 -0.7,0.8 0.4,0.5 0.8,-0.8 z m 0,-3.4 -0.5,-0.4 -0.7,0.8 0.4,0.4 0.8,-0.8 z m 1.7,8.5 -0.5,-0.5 -0.8,0.8 0.5,0.5 0.8,-0.8 z m 0,-3.4 -0.5,-0.5 -0.8,0.8 0.5,0.5 0.8,-0.8 z m 0,-3.4 -0.5,-0.4 -0.8,0.8 0.5,0.4 0.8,-0.8 z m 0,-3.4 -0.5,-0.4 -0.8,0.8 0.5,0.4 0.8,-0.8 z m 1.7,11.9 -0.5,-0.5 -0.8,0.8 0.5,0.5 0.8,-0.8 z m 0,-3.4 -0.5,-0.5 -0.8,0.8 0.5,0.5 0.8,-0.8 z m 0,-3.4 -0.5,-0.5 -0.8,0.8 0.5,0.5 0.8,-0.8 z m 0,-3.4 -0.5,-0.4 -0.8,0.8 0.5,0.4 0.8,-0.8 z m 1.7,8.5 -0.5,-0.5 -0.8,0.8 0.5,0.5 0.8,-0.8 z m 0,-3.4 -0.5,-0.5 -0.8,0.8 0.5,0.5 0.8,-0.8 z m 0,-3.4 -0.5,-0.4 -0.8,0.8 0.5,0.4 0.8,-0.8 z m 0,-3.4 -0.5,-0.4 -0.8,0.8 0.5,0.4 0.8,-0.8 z m 1.7,11.9 -0.5,-0.5 -0.8,0.8 0.5,0.5 0.8,-0.8 z m 0,-3.4 -0.5,-0.5 -0.8,0.8 0.5,0.5 0.8,-0.8 z m 0,-3.4 -0.5,-0.5 -0.8,0.8 0.5,0.5 0.8,-0.8 z m 0,-3.4 -0.5,-0.4 -0.8,0.8 0.5,0.4 0.8,-0.8 z m 1.6,8.5 -0.4,-0.5 -0.8,0.8 0.5,0.5 0.7,-0.8 z m 0,-3.4 -0.4,-0.5 -0.8,0.8 0.5,0.5 0.7,-0.8 z m 0,-3.4 -0.4,-0.4 -0.8,0.8 0.5,0.4 0.7,-0.8 z m 0,-3.4 -0.4,-0.4 -0.8,0.8 0.5,0.4 0.7,-0.8 z m 8.7,4 -7,7 0,0.8 -0.4,-0.4 -0.8,0.8 0.4,0.5 7.8,-7.8 0,-0.9 z m 0,-3.4 -7,7 0,0.8 -0.4,-0.4 -0.8,0.8 0.4,0.5 7.8,-7.8 0,-0.9 z"
       style="font-style:normal;font-variant:normal;font-weight:normal;font-stretch:normal;font-size:100px;line-height:normal;font-family:'Homestead Display';fill:#493a2c"
       id="path3353" />
    <path
       d="m 407.13281,144.2 14,14 0,1.8 -14,-14 0,-1.8 z m 0,-3.3 14,14 0,1.8 -14,-14 0,-1.8 z m 0,6.7 14,14 0,1.8 -14,-14 0,-1.8 z m 0,-13.5 14,14 0,1.8 -14,-14 0,-1.8 z m 0,3.4 14,14 0,1.8 -14,-14 0,-1.8 z m 0,-6.8 14,14 0,1.8 -14,-14 0,-1.8 z m 14,12.4 -14,-14 0,-1.8 14,14 0,1.8 z m 4.9,36.9 2.1,-2.1 0,2.1 -2.1,0 z m -3.4,0 5.5,-5.5 0,2.5 -3,3 -2.5,0 z m -22.5,-14 1.8,0 -1.8,1.8 0,-1.8 z m 26.3,0 1.7,0 0,0.8 -7.7,7.7 0.5,0.4 7.2,-7.2 0,2.5 -7.7,7.7 0.5,0.4 7.2,-7.2 0,2.5 -6.4,6.4 -2.5,0 0.8,-0.8 -0.5,-0.4 -0.8,0.8 0.5,0.4 -3.4,0 0.8,-0.8 -0.5,-0.4 -0.7,0.8 0.4,0.4 -3.4,0 0.8,-0.8 -0.4,-0.4 -0.8,0.8 0.4,0.4 -3.4,0 0.8,-0.8 -0.4,-0.4 -0.8,0.8 0.4,0.4 -3.3,0 1.4,-1.4 0,-0.5 0.2,0.2 0.8,-0.8 -0.4,-0.4 -2.9,2.9 -2.5,0 4.8,-4.8 0,-0.5 0.2,0.2 0.8,-0.8 -0.4,-0.4 -6.3,6.3 -1.3,0 0,-1.2 7,-7 0,-0.5 0.2,0.3 0.8,-0.8 -0.4,-0.5 -7.6,7.6 0,-2.5 7,-7 0,-0.5 0.2,0.3 0.8,-0.8 -0.4,-0.5 -7.6,7.6 0,-2.5 6,-6 1,0 0,-1.5 1.5,1.5 0,0 0,0 0.4,0.5 0.5,-0.5 0.6,0 -3,-3 0,-1.8 4.8,4.8 0.1,0 0,0 0.4,0.5 0.5,-0.5 0.6,0 -6.4,-6.4 0,-1.8 8.2,8.2 0.1,0 0,0 0.4,0.5 0.5,-0.5 0.6,0 -9.8,-9.8 0,-1.8 11.6,11.6 0.1,0 -0.1,0 0.5,0.5 0.5,-0.5 0.6,0 -13.2,-13.2 0,-1.8 14,14 0,1 1.1,0 -1.8,1.7 0.5,0.5 2.1,-2.2 2.5,0 -5.1,5.1 0.5,0.5 5.5,-5.6 z m -16.6,9.8 -0.4,-0.4 -0.8,0.8 0.4,0.4 0.8,-0.8 z m 0,-3.3 -0.4,-0.5 -0.8,0.8 0.4,0.4 0.8,-0.7 z m 0,-3.4 -0.4,-0.5 -0.8,0.8 0.4,0.5 0.8,-0.8 z m 1.7,8.4 -0.4,-0.4 -0.8,0.8 0.4,0.4 0.8,-0.8 z m 0,-3.4 -0.4,-0.4 -0.8,0.8 0.4,0.4 0.8,-0.8 z m 0,-3.3 -0.4,-0.5 -0.8,0.8 0.4,0.5 0.8,-0.8 z m 0,-3.4 -0.4,-0.5 -0.8,0.8 0.4,0.5 0.8,-0.8 z m 1.7,8.4 -0.4,-0.4 -0.8,0.8 0.4,0.4 0.8,-0.8 z m 0,-3.3 -0.4,-0.5 -0.8,0.8 0.4,0.4 0.8,-0.7 z m 0,-3.4 -0.4,-0.5 -0.8,0.8 0.4,0.5 0.8,-0.8 z m 1.7,8.4 -0.4,-0.4 -0.8,0.8 0.4,0.4 0.8,-0.8 z m 0,-3.4 -0.4,-0.4 -0.8,0.8 0.4,0.4 0.8,-0.8 z m 0,-3.3 -0.4,-0.5 -0.8,0.8 0.4,0.5 0.8,-0.8 z m 0,-3.4 -0.4,-0.5 -0.8,0.8 0.4,0.5 0.8,-0.8 z m 1.7,8.4 -0.5,-0.4 -0.7,0.8 0.4,0.4 0.8,-0.8 z m 0,-3.3 -0.5,-0.5 -0.7,0.8 0.4,0.4 0.8,-0.7 z m 0,-3.4 -0.5,-0.5 -0.7,0.8 0.4,0.5 0.8,-0.8 z m 1.7,8.4 -0.5,-0.4 -0.8,0.8 0.5,0.4 0.8,-0.8 z m 0,-3.4 -0.5,-0.4 -0.8,0.8 0.5,0.4 0.8,-0.8 z m 0,-3.3 -0.5,-0.5 -0.8,0.8 0.5,0.5 0.8,-0.8 z m 0,-3.4 -0.5,-0.5 -0.8,0.8 0.5,0.5 0.8,-0.8 z m 1.7,8.4 -0.5,-0.4 -0.8,0.8 0.5,0.4 0.8,-0.8 z m 0,-3.3 -0.5,-0.5 -0.8,0.8 0.5,0.4 0.8,-0.7 z m 0,-3.4 -0.5,-0.5 -0.8,0.8 0.5,0.5 0.8,-0.8 z m -19.9,-0.5 2.6,-2.6 2.5,0 -5.1,5.1 0,-2.5 z m 42,-58.6 0,21 -14,0 0,-7 -1.3,0 1.3,-1.3 0,-0.9 -2.2,2.2 -2.5,0 4.7,-4.7 0,-0.9 -5.6,5.6 -1.8,0 0.4,0.4 0,1.8 -2.2,-2.2 -1.6,0 3.8,3.8 0,1.8 -5.6,-5.6 -1.6,0 7.2,7.2 0,1.8 -9,-9 -1.6,0 10.6,10.6 0,1.8 -12.4,-12.4 -1.5,0 13.9,13.9 0,1.8 -14,-14 0,-1.7 -7,0 0,7 -14,0 0,-21 24,0 0.1,0.1 0.1,-0.1 3.2,0 0.1,0.1 0.1,-0.1 3.1,0 0.2,0.1 0.1,-0.1 3.1,0 0.1,0.1 0.2,-0.1 2.5,0 -1.9,1.9 0,0.8 -0.4,-0.4 -0.8,0.8 0.4,0.4 3.5,-3.5 2.5,0 -5.2,5.2 0,0.9 -0.4,-0.5 -0.8,0.8 0.4,0.5 6.9,-6.9 14.9,0 z m -34.5,12.9 -0.4,-0.5 -0.1,0.1 0,0.9 0.5,-0.5 z m 0,-3.4 -0.4,-0.5 -0.1,0.1 0,0.9 0.5,-0.5 z m 0,-3.4 -0.4,-0.5 -0.1,0.1 0,0.9 0.5,-0.5 z m 0,-3.4 -0.4,-0.4 -0.1,0 0,0.9 0.5,-0.5 z m 1.7,8.5 -0.4,-0.5 -0.8,0.8 0.4,0.5 0.8,-0.8 z m 0,-3.4 -0.4,-0.5 -0.8,0.8 0.4,0.5 0.8,-0.8 z m 0,-3.4 -0.4,-0.4 -0.8,0.8 0.4,0.4 0.8,-0.8 z m 0,-3.4 -0.4,-0.4 -0.8,0.8 0.4,0.4 0.8,-0.8 z m 1.7,11.9 -0.5,-0.5 -0.7,0.8 0.4,0.5 0.8,-0.8 z m 0,-3.4 -0.5,-0.5 -0.7,0.8 0.4,0.5 0.8,-0.8 z m 0,-3.4 -0.5,-0.5 -0.7,0.8 0.4,0.5 0.8,-0.8 z m 0,-3.4 -0.5,-0.4 -0.7,0.8 0.4,0.4 0.8,-0.8 z m 1.7,8.5 -0.5,-0.5 -0.8,0.8 0.5,0.5 0.8,-0.8 z m 0,-3.4 -0.5,-0.5 -0.8,0.8 0.5,0.5 0.8,-0.8 z m 0,-3.4 -0.5,-0.4 -0.8,0.8 0.5,0.4 0.8,-0.8 z m 0,-3.4 -0.5,-0.4 -0.8,0.8 0.5,0.4 0.8,-0.8 z m 1.7,11.9 -0.5,-0.5 -0.8,0.8 0.5,0.5 0.8,-0.8 z m 0,-3.4 -0.5,-0.5 -0.8,0.8 0.5,0.5 0.8,-0.8 z m 0,-3.4 -0.5,-0.5 -0.8,0.8 0.5,0.5 0.8,-0.8 z m 0,-3.4 -0.5,-0.4 -0.8,0.8 0.5,0.4 0.8,-0.8 z m 1.7,8.5 -0.5,-0.5 -0.8,0.8 0.5,0.5 0.8,-0.8 z m 0,-3.4 -0.5,-0.5 -0.8,0.8 0.5,0.5 0.8,-0.8 z m 0,-3.4 -0.5,-0.4 -0.8,0.8 0.5,0.4 0.8,-0.8 z m 0,-3.4 -0.5,-0.4 -0.8,0.8 0.5,0.4 0.8,-0.8 z m 1.7,11.9 -0.5,-0.5 -0.8,0.8 0.5,0.5 0.8,-0.8 z m 0,-3.4 -0.5,-0.5 -0.8,0.8 0.5,0.5 0.8,-0.8 z m 0,-3.4 -0.5,-0.5 -0.8,0.8 0.5,0.5 0.8,-0.8 z m 0,-3.4 -0.5,-0.4 -0.8,0.8 0.5,0.4 0.8,-0.8 z m 1.6,8.5 -0.4,-0.5 -0.8,0.8 0.5,0.5 0.7,-0.8 z m 0,-3.4 -0.4,-0.5 -0.8,0.8 0.5,0.5 0.7,-0.8 z m 0,-3.4 -0.4,-0.4 -0.8,0.8 0.5,0.4 0.7,-0.8 z m 0,-3.4 -0.4,-0.4 -0.8,0.8 0.5,0.4 0.7,-0.8 z m 8.7,4 -7,7 0,0.8 -0.4,-0.4 -0.8,0.8 0.4,0.5 7.8,-7.8 0,-0.9 z m 0,-3.4 -7,7 0,0.8 -0.4,-0.4 -0.8,0.8 0.4,0.5 7.8,-7.8 0,-0.9 z"
       style="font-style:normal;font-variant:normal;font-weight:normal;font-stretch:normal;font-size:100px;line-height:normal;font-family:'Homestead Display';fill:#493a2c"
       id="path3355" />
  </g>
</svg>
