<svg
   xmlns="http://www.w3.org/2000/svg"
   viewBox="-29 0 304 42"
   version="1.1">
  <g transform="translate(-1.26,-2)" style="fill:#493A2C;stroke:none;">
    <path
       d="m -3.4562742,2.0648724 0,8.4589796 c 85.6721712,10e-4 173.2488242,0.0132 258.2558642,-0.0292 l 0,25.20117 -4.19922,0 0,8.40039 16.80078,0 0,-8.40039 -4.20117,0 0,-25.20117 4.20117,0 0,4.20117 8.39844,0 0,-12.5996096 c -95.95957,-0.0377 -196.476263,-0.0322 -279.2558642,-0.0312 z" />
    <g transform="translate(-169.9,-265.4)">
      <path
         d="m 171.54285,267.50507 0,8.4 -4.2,0 0,21 q 0,2.64 -1.02,4.92 -0.96,2.28 -2.7,4.02 -1.68,1.68 -4.02,2.7 -2.28,0.96 -4.86,0.96 -2.64,0 -4.92,-0.96 -2.28,-1.02 -4.02,-2.7 -1.68,-1.74 -2.7,-4.02 -0.96,-2.28 -0.96,-4.92 l 0,-4.2 8.4,0 0,4.2 q 0,1.74 1.2,3 1.26,1.2 3,1.2 1.74,0 2.94,-1.2 1.26,-1.26 1.26,-3 l 0,-21 -4.2,0 0,-8.4 16.8,0 z"
          />
      <path
         d="m 197.74692,303.90507 0,5.6 -11.2,0 0,-5.6 2.64,0 -0.84,-2.8 -8.64,0 -0.84,2.8 2.64,0 0,5.6 -11.2,0 0,-5.6 2.72,0 6.72,-22.4 8.56,0 6.72,22.4 2.72,0 z m -11.08,-8.4 -2.52,-8.4 -0.24,0 -2.52,8.4 5.28,0 z"
          />
      <path
         d="m 217.02879,291.30507 0,-1.4 q 0,-1.16 -0.84,-1.96 -0.8,-0.84 -1.96,-0.84 l -5.6,0 q -1.16,0 -2,0.84 -0.8,0.8 -0.8,1.96 l 0,11.2 q 0,1.16 0.8,2 0.84,0.8 2,0.8 l 5.6,0 q 1.16,0 1.96,-0.8 0.84,-0.84 0.84,-2 l 0,-1.4 5.6,0 0,1.4 q 0,1.76 -0.68,3.28 -0.64,1.52 -1.8,2.68 -1.12,1.12 -2.68,1.8 -1.52,0.64 -3.24,0.64 l -5.6,0 q -1.76,0 -3.28,-0.64 -1.52,-0.68 -2.68,-1.8 -1.12,-1.16 -1.8,-2.68 -0.64,-1.52 -0.64,-3.28 l 0,-11.2 q 0,-1.72 0.64,-3.24 0.68,-1.56 1.8,-2.68 1.16,-1.16 2.68,-1.8 1.52,-0.68 3.28,-0.68 l 5.6,0 q 1.72,0 3.24,0.68 1.56,0.64 2.68,1.8 1.16,1.12 1.8,2.68 0.68,1.52 0.68,3.24 l 0,1.4 -5.6,0 z"
          />
      <path
         d="m 241.55817,293.66507 6.12,10.24 2.64,0 0,5.6 -11.2,0 0,-5.6 2.04,0 -3.72,-6.24 -4.2,4.08 0,2.16 2.8,0 0,5.6 -11.2,0 0,-5.6 2.8,0 0,-16.8 -2.8,0 0,-5.6 10.92,0 0,5.6 -2.52,0 0,6.84 7.04,-6.84 -1.44,0 0,-5.6 11.48,0 0,5.6 -2,0 -6.76,6.56 z"
          />
      <path
         d="m 273.04692,294.82507 q 1.16,1.16 1.8,2.72 0.64,1.52 0.64,3.28 0,1.8 -0.68,3.4 -0.68,1.56 -1.88,2.76 -1.16,1.16 -2.76,1.84 -1.56,0.68 -3.36,0.68 l -14,0 0,-5.6 2.8,0 0,-16.8 -2.8,0 0,-5.6 14,0 q 1.68,0 3.16,0.64 1.48,0.64 2.56,1.76 1.12,1.08 1.76,2.56 0.64,1.48 0.64,3.16 0,1.48 -0.52,2.8 -0.48,1.32 -1.36,2.4 z m -11.84,-7.72 0,5.04 5.6,0 q 1.04,0 1.76,-0.72 0.76,-0.76 0.76,-1.8 0,-1.04 -0.76,-1.76 -0.72,-0.76 -1.76,-0.76 l -5.6,0 z m 5.6,16.8 q 1.28,0 2.16,-0.88 0.92,-0.92 0.92,-2.2 0,-1.28 -0.92,-2.16 -0.88,-0.92 -2.16,-0.92 l -5.6,0 0,6.16 5.6,0 z"
          />
      <path
         d="m 297.32879,281.50507 0,8.4 -5.6,0 0,-2.8 -5.6,0 0,5.6 5.6,0 0,5.6 -5.6,0 0,5.6 5.6,0 0,-2.8 5.6,0 0,8.4 -19.6,0 0,-5.6 2.8,0 0,-16.8 -2.8,0 0,-5.6 19.6,0 z"
          />
      <path
         d="m 327.55817,281.50507 0,5.6 -2.8,0 0,22.4 -5.6,0 -10.92,-17.44 0,11.84 2.8,0 0,5.6 -11.2,0 0,-5.6 2.8,0 0,-16.8 -2.8,0 0,-5.6 8.4,0 10.92,17.44 0,-11.84 -2.8,0 0,-5.6 11.2,0 z"
          />
      <path
         d="m 333.43254,302.78507 q 1.4,0 2.36,1 1,0.96 1,2.36 0,1.4 -1,2.4 -0.96,0.96 -2.36,0.96 -1.4,0 -2.4,-0.96 -0.96,-1 -0.96,-2.4 0,-1.4 0.96,-2.36 1,-1 2.4,-1 z"
          />
      <path
         d="m 366.77692,281.50507 0,5.6 -2.8,0 0,22.4 -5.6,0 -10.92,-17.44 0,11.84 2.8,0 0,5.6 -11.2,0 0,-5.6 2.8,0 0,-16.8 -2.8,0 0,-5.6 8.4,0 10.92,17.44 0,-11.84 -2.8,0 0,-5.6 11.2,0 z"
          />
      <path
         d="m 388.89129,281.50507 0,8.4 -5.6,0 0,-2.8 -5.6,0 0,5.6 5.6,0 0,5.6 -5.6,0 0,5.6 5.6,0 0,-2.8 5.6,0 0,8.4 -19.6,0 0,-5.6 2.8,0 0,-16.8 -2.8,0 0,-5.6 19.6,0 z"
          />
      <path
         d="m 413.80067,281.50507 0,8.4 -5.6,0 0,-2.8 -2.8,0 0,16.8 2.8,0 0,5.6 -11.2,0 0,-5.6 2.8,0 0,-16.8 -2.8,0 0,2.8 -5.6,0 0,-8.4 22.4,0 z"
          />
    </g>
  </g>
</svg>
